<svg width="851" height="723" viewBox="0 0 851 723" fill="none" xmlns="http://www.w3.org/2000/svg">
<g filter="url(#filter0_f_215_219)">
<g clip-path="url(#clip0_215_219)">
<rect width="1167" height="733" rx="40" fill="white"/>
<path d="M129.634 11.9113H0V134.047H129.634V11.9113Z" fill="#F2F1F1"/>
<path d="M129.634 11.9114C129.634 79.3474 71.576 134.047 3.05176e-05 134.047V11.9114H129.634Z" fill="#262626"/>
<path d="M389 11.9113H129.634V256.275H389V11.9113Z" fill="#F2F1F1"/>
<path d="M129.634 134.047C129.634 66.6114 187.693 11.9113 259.366 11.9113C331.039 11.9113 389 66.6114 389 134.047C389 201.483 330.942 256.184 259.366 256.184C187.79 256.184 129.634 201.575 129.634 134.047Z" fill="#F0F0F2"/>
<path d="M518.634 11.9113H389V134.047H518.634V11.9113Z" fill="#EC2F28"/>
<path d="M421.384 73.0252C421.384 56.1662 435.875 42.514 453.769 42.514C471.663 42.514 486.25 56.1662 486.25 73.0252C486.25 89.8842 471.76 103.536 453.866 103.536C435.972 103.536 421.384 89.8842 421.384 73.0252Z" fill="#F2F1F1"/>
<path d="M648.268 11.9113H518.634V134.047H648.268V11.9113Z" fill="#F2F1F1"/>
<path d="M518.634 134.047C518.634 66.6114 576.692 11.9113 648.366 11.9113V134.047H518.634Z" fill="#D2D6D9"/>
<path d="M778 11.9113H648.366V134.047H778V11.9113Z" fill="#D2D6D9"/>
<path d="M648.366 73.0251C648.366 39.3071 677.346 11.9113 713.232 11.9113C749.117 11.9113 778 39.2155 778 73.0251C778 106.835 749.02 134.139 713.134 134.139C677.249 134.139 648.366 106.743 648.366 73.0251Z" fill="#F0F0F2"/>
<path d="M129.634 134.047H0V256.183H129.634V134.047Z" fill="#EC2F28"/>
<path d="M32.3842 195.161C32.3842 178.302 46.8745 164.65 64.7685 164.65C82.6625 164.65 97.25 178.302 97.25 195.161C97.25 212.02 82.7597 225.672 64.8657 225.672C46.9717 225.672 32.3842 212.02 32.3842 195.161Z" fill="#262626"/>
<path d="M518.634 134.047H389V256.183H518.634V134.047Z" fill="#D2D6D9"/>
<path d="M389 256.275C389 188.839 447.058 134.139 518.634 134.139V256.275H389Z" fill="#262626"/>
<path d="M648.268 134.047H518.634V256.183H648.268V134.047Z" fill="#EC2F28"/>
<path d="M648.366 256.275C576.79 256.275 518.732 201.575 518.732 134.139H648.366V256.275Z" fill="#F0F0F2"/>
<path d="M778 134.047H648.366V256.183H778V134.047Z" fill="#F0F0F2"/>
<path d="M648.366 256.275C648.366 188.839 706.424 134.139 778 134.139V256.275H648.366Z" fill="#F0F0F2"/>
<path d="M129.634 256.275H0V378.411H129.634V256.275Z" fill="#EC2F28"/>
<path d="M0 256.275C71.576 256.275 129.634 310.975 129.634 378.411H0V256.275Z" fill="#262626"/>
<path d="M259.268 256.275H129.634V378.411H259.268V256.275Z" fill="#EC2F28"/>
<path d="M129.634 317.297C129.634 283.579 158.615 256.183 194.5 256.183C230.385 256.183 259.366 283.488 259.366 317.297C259.366 351.107 230.288 378.411 194.5 378.411C158.712 378.411 129.634 351.107 129.634 317.297Z" fill="#F0F0F2"/>
<path d="M389 256.275H259.366V378.411H389V256.275Z" fill="#F0F0F2"/>
<path d="M259.366 317.297C259.366 283.579 288.346 256.183 324.231 256.183C360.117 256.183 389.097 283.488 389.097 317.297C389.097 351.107 360.019 378.411 324.134 378.411C288.249 378.411 259.366 351.107 259.366 317.297Z" fill="#EC2F28"/>
<path d="M518.634 256.275H389V378.411H518.634V256.275Z" fill="#F2F1F1"/>
<path d="M518.634 256.275C518.634 323.711 460.576 378.411 389 378.411V256.275H518.634Z" fill="#262626"/>
<path d="M648.268 256.275H518.634V378.411H648.268V256.275Z" fill="#F2F1F1"/>
<path d="M648.366 378.411C576.79 378.411 518.732 323.711 518.732 256.275H648.366V378.411Z" fill="#EC2F28"/>
<path d="M778 256.275H648.366V378.411H778V256.275Z" fill="#D2D6D9"/>
<path d="M680.75 317.297C680.75 300.438 695.24 286.786 713.134 286.786C731.028 286.786 745.518 300.438 745.518 317.297C745.518 334.156 731.028 347.809 713.134 347.809C695.24 347.9 680.75 334.156 680.75 317.297Z" fill="#EC2F28"/>
<path d="M129.634 378.411H0V500.547H129.634V378.411Z" fill="#F2F1F1"/>
<path d="M129.634 378.411C129.634 445.847 71.576 500.547 0 500.547V378.411H129.634Z" fill="#D2D6D9"/>
<path d="M259.268 378.411H129.634V500.547H259.268V378.411Z" fill="#F2F1F1"/>
<path d="M129.634 439.525C129.634 405.807 158.615 378.411 194.5 378.411C230.385 378.411 259.366 405.716 259.366 439.525C259.366 473.335 230.385 500.639 194.5 500.639C158.615 500.639 129.634 473.243 129.634 439.525Z" fill="#D2D6D9"/>
<path d="M389 378.411H259.366V500.547H389V378.411Z" fill="#F0F0F2"/>
<path d="M291.75 439.525C291.75 422.666 306.24 409.014 324.134 409.014C342.028 409.014 356.519 422.666 356.519 439.525C356.519 456.384 342.028 470.036 324.134 470.036C306.24 470.036 291.75 456.384 291.75 439.525Z" fill="#D2D6D9"/>
<path d="M518.634 378.411H389V500.547H518.634V378.411Z" fill="#262626"/>
<path d="M389 439.525C389 405.807 417.981 378.411 453.866 378.411C489.751 378.411 518.732 405.716 518.732 439.525C518.732 473.335 489.751 500.639 453.866 500.639C417.981 500.639 389 473.243 389 439.525Z" fill="#F0F0F2"/>
<path d="M648.268 378.411H518.634V500.547H648.268V378.411Z" fill="#F2F1F1"/>
<path d="M551.116 439.525C551.116 422.666 565.606 409.014 583.5 409.014C601.394 409.014 615.884 422.666 615.884 439.525C615.884 456.384 601.394 470.036 583.5 470.036C565.606 470.036 551.116 456.384 551.116 439.525Z" fill="#EC2F28"/>
<path d="M778 378.411H648.366V500.547H778V378.411Z" fill="#262626"/>
<path d="M778 378.411C778 445.847 719.942 500.547 648.366 500.547V378.411H778Z" fill="#D2D6D9"/>
<path d="M129.634 500.547H0V622.683H129.634V500.547Z" fill="#D2D6D9"/>
<path d="M0 561.661C0 527.943 28.9805 500.547 64.8657 500.547C100.751 500.547 129.731 527.852 129.731 561.661C129.731 595.471 100.751 622.775 64.8657 622.775C28.9805 622.775 0 595.379 0 561.661Z" fill="#F2F1F1"/>
<path d="M259.268 500.547H129.634V622.683H259.268V500.547Z" fill="#F2F1F1"/>
<path d="M129.634 561.661C129.634 527.943 158.615 500.547 194.5 500.547C230.385 500.547 259.366 527.852 259.366 561.661C259.366 595.471 230.385 622.775 194.5 622.775C158.615 622.775 129.634 595.379 129.634 561.661Z" fill="#262626"/>
<path d="M162.116 561.661C162.116 544.802 176.606 531.15 194.5 531.15C212.394 531.15 226.884 544.802 226.884 561.661C226.884 578.52 212.394 592.172 194.5 592.172C176.606 592.172 162.116 578.52 162.116 561.661Z" fill="#F2F1F1"/>
<path d="M648.268 500.547H518.634V622.683H648.268V500.547Z" fill="#D2D6D9"/>
<path d="M648.366 500.547C648.366 567.983 590.308 622.683 518.732 622.683V500.547H648.366Z" fill="#F2F1F1"/>
<path d="M778 500.547H648.366V622.683H778V500.547Z" fill="#F2F1F1"/>
<path d="M648.366 622.775C648.366 555.339 706.424 500.639 778 500.639V622.775H648.366Z" fill="#EC2F28"/>
<path d="M129.634 622.775H0V744.911H129.634V622.775Z" fill="#EC2F28"/>
<path d="M32.3842 683.797C32.3842 666.938 46.8745 653.286 64.7685 653.286C82.6625 653.286 97.1528 666.938 97.1528 683.797C97.1528 700.656 82.6625 714.308 64.7685 714.308C46.8745 714.308 32.3842 700.656 32.3842 683.797Z" fill="#D2D6D9"/>
<path d="M259.268 622.775H129.634V744.911H259.268V622.775Z" fill="#262626"/>
<path d="M259.366 622.775C259.366 690.211 201.308 744.911 129.732 744.911V622.775H259.366Z" fill="#EC2F28"/>
<path d="M518.732 500.547H259.366V744.911H518.732V500.547Z" fill="#D2D6D9"/>
<path d="M518.634 744.911C375.385 744.911 259.268 635.511 259.268 500.547H518.634V744.911Z" fill="#F2F1F1"/>
<path d="M907.634 622.775H778V744.911H907.634V622.775Z" fill="#EC2F28"/>
<path d="M875.25 683.797C875.25 700.656 860.76 714.308 842.866 714.308C824.972 714.308 810.481 700.656 810.481 683.797C810.481 666.938 824.972 653.286 842.866 653.286C860.76 653.286 875.25 666.938 875.25 683.797Z" fill="#F2F1F1"/>
<path d="M907.634 500.547H778V622.683H907.634V500.547Z" fill="#D2D6D9"/>
<path d="M907.634 500.547C907.634 567.983 849.576 622.683 778 622.683V500.547H907.634Z" fill="#262626"/>
<path d="M907.634 378.411H778V500.547H907.634V378.411Z" fill="#F2F1F1"/>
<path d="M778 500.547C778 433.111 836.058 378.411 907.634 378.411V500.547H778Z" fill="#262626"/>
<path d="M907.634 256.275H778V378.411H907.634V256.275Z" fill="#262626"/>
<path d="M907.634 317.297C907.634 351.015 878.654 378.411 842.768 378.411C806.883 378.411 778 351.107 778 317.297C778 283.488 806.981 256.183 842.866 256.183C878.751 256.183 907.634 283.579 907.634 317.297Z" fill="#F0F0F2"/>
<path d="M907.634 134.047H778V256.183H907.634V134.047Z" fill="#D2D6D9"/>
<path d="M907.634 195.161C907.634 228.879 878.654 256.275 842.768 256.275C806.883 256.275 778 228.879 778 195.161C778 161.443 806.981 134.047 842.866 134.047C878.751 134.047 907.634 161.443 907.634 195.161Z" fill="#F2F1F1"/>
<path d="M907.634 11.9113H778V134.047H907.634V11.9113Z" fill="#D2D6D9"/>
<path d="M778 11.9113C849.576 11.9113 907.634 66.6114 907.634 134.047H778V11.9113Z" fill="#F2F1F1"/>
<path d="M648.268 622.775H518.634V744.911H648.268V622.775Z" fill="#F0F0F2"/>
<path d="M778 622.775H648.366V744.911H778V622.775Z" fill="#F0F0F2"/>
<path d="M778 622.775C778 690.211 719.942 744.911 648.366 744.911V622.775H778Z" fill="#EC2F28"/>
<path d="M648.366 683.797C648.366 717.515 619.385 744.911 583.5 744.911C547.615 744.911 518.634 717.607 518.634 683.797C518.634 650.079 547.615 622.684 583.5 622.684C619.385 622.684 648.366 650.079 648.366 683.797Z" fill="#262626"/>
<path d="M162.116 317.297C162.116 300.438 176.606 286.786 194.5 286.786C212.394 286.786 226.884 300.438 226.884 317.297C226.884 334.156 212.394 347.809 194.5 347.809C176.606 347.809 162.116 334.156 162.116 317.297Z" fill="#262626"/>
<path d="M194.5 134.047C194.5 100.329 223.481 72.9335 259.366 72.9335C295.251 72.9335 324.231 100.238 324.231 134.047C324.231 167.857 295.154 195.161 259.366 195.161C223.578 195.161 194.5 167.857 194.5 134.047Z" fill="#262626"/>
</g>
</g>
<defs>
<filter id="filter0_f_215_219" x="-100" y="-100" width="1367" height="933" filterUnits="userSpaceOnUse" color-interpolation-filters="sRGB">
<feFlood flood-opacity="0" result="BackgroundImageFix"/>
<feBlend mode="normal" in="SourceGraphic" in2="BackgroundImageFix" result="shape"/>
<feGaussianBlur stdDeviation="50" result="effect1_foregroundBlur_215_219"/>
</filter>
<clipPath id="clip0_215_219">
<rect width="1167" height="733" rx="40" fill="white"/>
</clipPath>
</defs>
</svg>
