<svg width="51" height="48" viewBox="0 0 51 48" fill="none" xmlns="http://www.w3.org/2000/svg">
<rect x="1.5" y="2" width="48" height="44" rx="3.5" fill="#1E1E1E"/>
<rect x="1.5" y="2" width="48" height="44" rx="3.5" stroke="#1E1E1E" stroke-width="3"/>
<path d="M26.112 10.214C25.9346 10.0757 25.716 10.0005 25.491 10.0005C25.266 10.0005 25.0474 10.0757 24.87 10.214L10.5 21.419L11.743 22.991L13.5 21.621V34C13.5011 34.5301 13.7121 35.0382 14.087 35.4131C14.4618 35.7879 14.9699 35.999 15.5 36H35.5C36.0301 35.999 36.5382 35.7879 36.913 35.4131C37.2879 35.0382 37.4989 34.5301 37.5 34V21.63L39.257 23L40.5 21.428L26.112 10.214ZM27.5 34H23.5V26H27.5V34ZM29.5 34V26C29.4995 25.4697 29.2886 24.9613 28.9136 24.5864C28.5387 24.2114 28.0303 24.0005 27.5 24H23.5C22.9697 24.0005 22.4613 24.2114 22.0864 24.5864C21.7114 24.9613 21.5005 25.4697 21.5 26V34H15.5V20.062L25.5 12.272L35.5 20.072V34H29.5Z" fill="white"/>
</svg>
