<svg width="55" height="55" viewBox="0 0 55 55" fill="none" xmlns="http://www.w3.org/2000/svg">
<g id="bulb_9874471" clip-path="url(#clip0_670_480)">
<path id="Vector" d="M51.9158 15.8816C53.5888 14.1519 54.5152 11.8341 54.4951 9.42775C54.4751 7.02142 53.5103 4.71932 51.8087 3.01773C50.1071 1.31614 47.805 0.351345 45.3987 0.331327C42.9924 0.311309 40.6746 1.23767 38.9449 2.91072C35.3872 1.25069 31.5089 0.390419 27.5829 0.390419C23.657 0.390419 19.7787 1.25069 16.221 2.91072C14.4913 1.23767 12.1735 0.311309 9.76715 0.331327C7.36082 0.351345 5.05873 1.31614 3.35714 3.01773C1.65554 4.71932 0.690746 7.02142 0.670728 9.42775C0.65071 11.8341 1.57708 14.1519 3.25012 15.8816C1.5901 19.4393 0.72982 23.3176 0.72982 27.2435C0.72982 31.1695 1.5901 35.0478 3.25012 38.6055C1.57708 40.3352 0.65071 42.653 0.670728 45.0593C0.690746 47.4656 1.65554 49.7677 3.35714 51.4693C5.05873 53.1709 7.36082 54.1357 9.76715 54.1557C12.1735 54.1758 14.4913 53.2494 16.221 51.5764C19.7787 53.2364 23.657 54.0967 27.5829 54.0967C31.5089 54.0967 35.3872 53.2364 38.9449 51.5764C40.6746 53.2494 42.9924 54.1758 45.3987 54.1557C47.805 54.1357 50.1071 53.1709 51.8087 51.4693C53.5103 49.7677 54.4751 47.4656 54.4951 45.0593C54.5152 42.653 53.5888 40.3352 51.9158 38.6055C53.5758 35.0478 54.4361 31.1695 54.4361 27.2435C54.4361 23.3176 53.5758 19.4393 51.9158 15.8816ZM45.2557 9.83299C44.8927 9.83299 44.5378 9.72534 44.236 9.52366C43.9341 9.32198 43.6989 9.03532 43.56 8.69993C43.421 8.36455 43.3847 7.9955 43.4555 7.63946C43.5263 7.28342 43.7011 6.95637 43.9578 6.69968C44.2145 6.44299 44.5416 6.26818 44.8976 6.19736C45.2537 6.12653 45.6227 6.16288 45.9581 6.3018C46.2935 6.44072 46.5801 6.67598 46.7818 6.97782C46.9835 7.27965 47.0911 7.63452 47.0911 7.99754C47.0906 8.48416 46.897 8.95069 46.5529 9.29478C46.2088 9.63888 45.7423 9.83243 45.2557 9.83299ZM44.2069 11.4062H46.3045C47.2082 11.4073 48.0746 11.7668 48.7136 12.4058C49.3526 13.0449 49.7121 13.9112 49.7132 14.8149V15.7253C48.4179 16.6673 46.8574 17.1748 45.2557 17.1748C43.654 17.1748 42.0935 16.6673 40.7982 15.7253V14.8149C40.7993 13.9112 41.1588 13.0449 41.7978 12.4058C42.4368 11.7668 43.3032 11.4073 44.2069 11.4062ZM45.2557 1.96678C46.6795 1.96567 48.0749 2.36465 49.2829 3.11823C50.4909 3.87181 51.4629 4.94967 52.088 6.22891C52.713 7.50814 52.9661 8.93728 52.8183 10.3534C52.6704 11.7695 52.1277 13.1155 51.2518 14.2381C51.1419 13.307 50.7721 12.4257 50.1847 11.6951C49.5972 10.9645 48.8159 10.414 47.9302 10.1067C48.3272 9.60431 48.5747 9.00023 48.6442 8.36368C48.7138 7.72713 48.6026 7.08386 48.3235 6.50755C48.0444 5.93125 47.6086 5.44522 47.066 5.10515C46.5234 4.76508 45.896 4.58471 45.2557 4.58471C44.6154 4.58471 43.988 4.76508 43.4454 5.10515C42.9028 5.44522 42.467 5.93125 42.1879 6.50755C41.9088 7.08386 41.7976 7.72713 41.8672 8.36368C41.9367 9.00023 42.1842 9.60431 42.5812 10.1067C41.6955 10.414 40.9142 10.9645 40.3267 11.6951C39.7393 12.4257 39.3694 13.307 39.2595 14.2381C38.3837 13.1155 37.841 11.7695 37.6931 10.3534C37.5453 8.93728 37.7983 7.50814 38.4234 6.22891C39.0485 4.94967 40.0204 3.87181 41.2285 3.11823C42.4365 2.36465 43.8319 1.96567 45.2557 1.96678ZM9.91018 1.96678C11.334 1.96567 12.7294 2.36465 13.9374 3.11823C15.1454 3.87181 16.1174 4.94967 16.7425 6.22891C17.3675 7.50814 17.6206 8.93728 17.4727 10.3534C17.3249 11.7695 16.7821 13.1155 15.9063 14.2381C15.7964 13.307 15.4266 12.4257 14.8391 11.6951C14.2517 10.9645 13.4704 10.414 12.5847 10.1067C12.9817 9.60431 13.2291 9.00023 13.2987 8.36368C13.3683 7.72713 13.2571 7.08386 12.978 6.50755C12.6989 5.93125 12.2631 5.44522 11.7205 5.10515C11.1779 4.76508 10.5505 4.58471 9.91018 4.58471C9.26984 4.58471 8.64245 4.76508 8.09988 5.10515C7.55731 5.44522 7.1215 5.93125 6.84238 6.50755C6.56325 7.08386 6.4521 7.72713 6.52166 8.36368C6.59122 9.00023 6.83867 9.60431 7.23567 10.1067C6.34996 10.414 5.56866 10.9645 4.98122 11.6951C4.39378 12.4257 4.02394 13.307 3.91403 14.2381C3.03822 13.1155 2.49545 11.7695 2.34762 10.3534C2.19978 8.93728 2.45283 7.50814 3.07791 6.22891C3.70298 4.94967 4.67493 3.87181 5.88294 3.11823C7.09095 2.36465 8.4864 1.96567 9.91018 1.96678ZM9.91018 9.83299C9.54716 9.83299 9.1923 9.72534 8.89046 9.52366C8.58862 9.32198 8.35337 9.03532 8.21445 8.69993C8.07553 8.36455 8.03918 7.9955 8.11 7.63946C8.18082 7.28342 8.35563 6.95637 8.61232 6.69968C8.86901 6.44299 9.19606 6.26818 9.5521 6.19736C9.90814 6.12653 10.2772 6.16288 10.6126 6.3018C10.948 6.44072 11.2346 6.67598 11.4363 6.97782C11.638 7.27965 11.7456 7.63452 11.7456 7.99754C11.7451 8.48416 11.5515 8.95069 11.2074 9.29478C10.8633 9.63888 10.3968 9.83243 9.91018 9.83299ZM8.86135 11.4062H10.959C11.8627 11.4073 12.7291 11.7668 13.3681 12.4058C14.0071 13.0449 14.3666 13.9112 14.3677 14.8149V15.7253C13.0723 16.6673 11.5119 17.1748 9.91018 17.1748C8.30851 17.1748 6.74801 16.6673 5.45266 15.7253V14.8149C5.45377 13.9112 5.81326 13.0449 6.45227 12.4058C7.09128 11.7668 7.95765 11.4073 8.86135 11.4062ZM2.30618 44.9163C2.30475 43.705 2.59273 42.5109 3.14613 41.4334C3.69953 40.3559 4.50233 39.4262 5.4877 38.7217C6.47306 38.0172 7.61247 37.5583 8.81105 37.3832C10.0096 37.2081 11.2327 37.3219 12.3784 37.7151C13.5241 38.1083 14.5593 38.7695 15.3978 39.6437C16.2363 40.5178 16.8538 41.5797 17.199 42.7408C17.5441 43.9018 17.6069 45.1286 17.382 46.3188C17.1572 47.5091 16.6512 48.6284 15.9063 49.5836C15.7964 48.6525 15.4266 47.7713 14.8391 47.0406C14.2517 46.31 13.4704 45.7595 12.5847 45.4522C12.9817 44.9498 13.2291 44.3457 13.2987 43.7092C13.3683 43.0726 13.2571 42.4294 12.978 41.8531C12.6989 41.2768 12.2631 40.7907 11.7205 40.4507C11.1779 40.1106 10.5505 39.9302 9.91018 39.9302C9.26984 39.9302 8.64245 40.1106 8.09988 40.4507C7.55731 40.7907 7.1215 41.2768 6.84238 41.8531C6.56325 42.4294 6.4521 43.0726 6.52166 43.7092C6.59122 44.3457 6.83867 44.9498 7.23567 45.4522C6.34996 45.7595 5.56866 46.31 4.98122 47.0406C4.39378 47.7713 4.02394 48.6525 3.91403 49.5836C2.87107 48.2515 2.30494 46.6081 2.30618 44.9163ZM8.07473 43.343C8.07473 42.98 8.18238 42.6252 8.38406 42.3233C8.58574 42.0215 8.8724 41.7862 9.20778 41.6473C9.54317 41.5084 9.91222 41.472 10.2683 41.5429C10.6243 41.6137 10.9513 41.7885 11.208 42.0452C11.4647 42.3019 11.6395 42.6289 11.7104 42.985C11.7812 43.341 11.7448 43.7101 11.6059 44.0454C11.467 44.3808 11.2317 44.6675 10.9299 44.8692C10.6281 45.0709 10.2732 45.1785 9.91018 45.1785C9.42356 45.1779 8.95703 44.9844 8.61294 44.6403C8.26884 44.2962 8.07529 43.8297 8.07473 43.343ZM5.45266 51.0708V50.1604C5.45377 49.2567 5.81326 48.3904 6.45227 47.7514C7.09128 47.1123 7.95765 46.7528 8.86135 46.7517H10.959C11.8627 46.7528 12.7291 47.1123 13.3681 47.7514C14.0071 48.3904 14.3666 49.2567 14.3677 50.1604V51.0708C13.0723 52.0128 11.5119 52.5203 9.91018 52.5203C8.30851 52.5203 6.74801 52.0128 5.45266 51.0708ZM17.3044 50.3366C18.5948 48.5697 19.2109 46.3996 19.0417 44.2182C18.8725 42.0368 17.9291 39.9877 16.3817 38.4409C14.8343 36.894 12.785 35.9512 10.6035 35.7827C8.42204 35.6142 6.2522 36.2311 4.48564 37.5221C3.04867 34.287 2.30621 30.7865 2.30621 27.2467C2.30621 23.7068 3.04867 20.2064 4.48564 16.9713C6.25267 18.2687 8.42592 18.8902 10.6117 18.7234C12.7975 18.5566 14.8513 17.6125 16.401 16.062C17.9507 14.5115 18.8938 12.4573 19.0595 10.2714C19.2253 8.08558 18.6026 5.91263 17.3044 4.14624C20.5395 2.70927 24.04 1.96681 27.5798 1.96681C31.1196 1.96681 34.6201 2.70927 37.8552 4.14624C36.5578 5.91327 35.9362 8.08652 36.1031 10.2723C36.2699 12.4581 37.214 14.5119 38.7645 16.0616C40.3149 17.6113 42.3692 18.5544 44.555 18.7201C46.7409 18.8859 48.9138 18.2632 50.6802 16.965C52.1172 20.2001 52.8597 23.7006 52.8597 27.2404C52.8597 30.7802 52.1172 34.2807 50.6802 37.5158C48.9132 36.2184 46.74 35.5968 44.5542 35.7637C42.3684 35.9305 40.3146 36.8746 38.7649 38.4251C37.2152 39.9755 36.2721 42.0298 36.1063 44.2156C35.9406 46.4015 36.5632 48.5744 37.8615 50.3408C34.6264 51.7778 31.1259 52.5203 27.5861 52.5203C24.0462 52.5203 20.5458 51.7778 17.3107 50.3408L17.3044 50.3366ZM40.7982 51.0708V50.1604C40.7993 49.2567 41.1588 48.3904 41.7978 47.7514C42.4368 47.1123 43.3032 46.7528 44.2069 46.7517H46.3045C47.2082 46.7528 48.0746 47.1123 48.7136 47.7514C49.3526 48.3904 49.7121 49.2567 49.7132 50.1604V51.0708C48.4179 52.0128 46.8574 52.5203 45.2557 52.5203C43.654 52.5203 42.0935 52.0128 40.7982 51.0708ZM45.2557 45.1785C44.8927 45.1785 44.5378 45.0709 44.236 44.8692C43.9341 44.6675 43.6989 44.3808 43.56 44.0454C43.421 43.7101 43.3847 43.341 43.4555 42.985C43.5263 42.6289 43.7011 42.3019 43.9578 42.0452C44.2145 41.7885 44.5416 41.6137 44.8976 41.5429C45.2537 41.472 45.6227 41.5084 45.9581 41.6473C46.2935 41.7862 46.5801 42.0215 46.7818 42.3233C46.9835 42.6252 47.0911 42.98 47.0911 43.343C47.0906 43.8297 46.897 44.2962 46.5529 44.6403C46.2088 44.9844 45.7423 45.1779 45.2557 45.1785ZM51.2518 49.5836C51.1419 48.6525 50.7721 47.7713 50.1847 47.0406C49.5972 46.31 48.8159 45.7595 47.9302 45.4522C48.3272 44.9498 48.5747 44.3457 48.6442 43.7092C48.7138 43.0726 48.6026 42.4294 48.3235 41.8531C48.0444 41.2768 47.6086 40.7907 47.066 40.4507C46.5234 40.1106 45.896 39.9302 45.2557 39.9302C44.6154 39.9302 43.988 40.1106 43.4454 40.4507C42.9028 40.7907 42.467 41.2768 42.1879 41.8531C41.9088 42.4294 41.7976 43.0726 41.8672 43.7092C41.9367 44.3457 42.1842 44.9498 42.5812 45.4522C41.6955 45.7595 40.9142 46.31 40.3267 47.0406C39.7393 47.7713 39.3694 48.6525 39.2595 49.5836C38.3836 48.4604 37.8408 47.1138 37.6928 45.6972C37.5449 44.2806 37.7978 42.8509 38.4227 41.571C39.0477 40.2911 40.0195 39.2124 41.2276 38.4579C42.4357 37.7034 43.8314 37.3033 45.2557 37.3033C46.68 37.3033 48.0757 37.7034 49.2838 38.4579C50.4918 39.2124 51.4637 40.2911 52.0887 41.571C52.7136 42.8509 52.9665 44.2806 52.8186 45.6972C52.6706 47.1138 52.1278 48.4604 51.2518 49.5836Z" fill="#D62828"/>
<path id="Vector_2" d="M34.7493 28.7801C36.0491 27.1522 36.758 25.1314 36.7599 23.0482C36.7599 21.8014 36.5058 20.5676 36.0131 19.4221C35.5205 18.2767 34.7996 17.2437 33.8945 16.3861C32.9894 15.5284 31.919 14.8642 30.7487 14.434C29.5784 14.0037 28.3327 13.8165 27.0876 13.8836C22.3385 14.1332 18.525 18.0579 18.4086 22.8175C18.355 24.982 19.0674 27.0959 20.4202 28.7864C21.4932 30.1314 22.0772 31.8012 22.0763 33.5218V33.7987H21.2897C21.0811 33.7987 20.881 33.8816 20.7335 34.0291C20.586 34.1766 20.5031 34.3767 20.5031 34.5853C20.5031 34.794 20.586 34.9941 20.7335 35.1416C20.881 35.2891 21.0811 35.372 21.2897 35.372H23.1252V37.7318C23.1252 37.9405 23.208 38.1405 23.3556 38.2881C23.5031 38.4356 23.7032 38.5184 23.9118 38.5184H24.174V39.8295C24.1751 40.5941 24.4793 41.3271 25.02 41.8678C25.5607 42.4084 26.2937 42.7127 27.0583 42.7138H28.1071C28.8717 42.7127 29.6047 42.4084 30.1454 41.8678C30.686 41.3271 30.9903 40.5941 30.9914 39.8295V38.5184H31.2536C31.4622 38.5184 31.6623 38.4356 31.8098 38.2881C31.9573 38.1405 32.0402 37.9405 32.0402 37.7318V35.372H33.8757C34.0843 35.372 34.2844 35.2891 34.4319 35.1416C34.5794 34.9941 34.6623 34.794 34.6623 34.5853C34.6623 34.3767 34.5794 34.1766 34.4319 34.0291C34.2844 33.8816 34.0843 33.7987 33.8757 33.7987H33.089V33.6414C33.0759 31.8797 33.6613 30.1657 34.7493 28.7801ZM29.4181 39.8295C29.4176 40.177 29.2793 40.5102 29.0335 40.7559C28.7878 41.0017 28.4546 41.14 28.1071 41.1405H27.0583C26.7107 41.14 26.3776 41.0017 26.1318 40.7559C25.8861 40.5102 25.7478 40.177 25.7472 39.8295V38.5184H29.4181V39.8295ZM30.467 36.9452H24.6984V35.372H30.467V36.9452ZM23.6496 33.7987V33.5218C23.65 31.4432 22.944 29.4262 21.6474 27.8015C20.4418 26.2976 19.8524 24.3921 19.9983 22.4702C20.1441 20.5483 21.0144 18.7535 22.433 17.4487C23.8517 16.144 25.7129 15.4266 27.6403 15.4418C29.5676 15.4569 31.4173 16.2035 32.8153 17.5303C34.1982 18.8417 35.0381 20.6245 35.1689 22.5258C35.2996 24.427 34.7115 26.308 33.5211 27.7963C32.2102 29.4614 31.5032 31.5222 31.5158 33.6414V33.8029L23.6496 33.7987Z" fill="#D62828"/>
<path id="Vector_3" d="M31.8099 20.166C31.7369 20.093 31.6503 20.035 31.5549 19.9955C31.4595 19.9559 31.3573 19.9356 31.254 19.9356C31.1507 19.9356 31.0485 19.9559 30.9531 19.9955C30.8577 20.035 30.7711 20.093 30.6981 20.166L26.6077 24.2565L24.4681 22.1274C24.3197 21.9841 24.1209 21.9049 23.9147 21.9068C23.7084 21.9087 23.5112 21.9915 23.3654 22.1375C23.2196 22.2834 23.137 22.4807 23.1353 22.687C23.1336 22.8932 23.213 23.0919 23.3563 23.2402L26.0455 25.9304C26.1186 26.0035 26.2053 26.0615 26.3008 26.1011C26.3963 26.1406 26.4986 26.161 26.6019 26.161C26.7053 26.161 26.8076 26.1406 26.9031 26.1011C26.9985 26.0615 27.0853 26.0035 27.1583 25.9304L31.8099 21.2789C31.883 21.2058 31.941 21.1191 31.9805 21.0236C32.0201 20.9281 32.0405 20.8258 32.0405 20.7224C32.0405 20.6191 32.0201 20.5168 31.9805 20.4213C31.941 20.3258 31.883 20.2391 31.8099 20.166Z" fill="#D62828"/>
</g>
<defs>
<clipPath id="clip0_670_480">
<rect width="53.7" height="53.7" fill="white" transform="translate(0.73291 0.393539)"/>
</clipPath>
</defs>
</svg>
