<svg width="33" height="32" viewBox="0 0 33 32" fill="none" xmlns="http://www.w3.org/2000/svg">
<path d="M17.112 2.21402C16.9346 2.07568 16.716 2.00055 16.491 2.00055C16.266 2.00055 16.0474 2.07568 15.87 2.21402L1.5 13.419L2.743 14.991L4.5 13.621V26C4.50106 26.5301 4.71211 27.0382 5.08695 27.4131C5.4618 27.7879 5.96989 27.999 6.5 28H26.5C27.0301 27.999 27.5382 27.7879 27.913 27.4131C28.2879 27.0382 28.4989 26.5301 28.5 26V13.63L30.257 15L31.5 13.428L17.112 2.21402ZM18.5 26H14.5V18H18.5V26ZM20.5 26V18C20.4995 17.4697 20.2886 16.9613 19.9136 16.5864C19.5387 16.2114 19.0303 16.0005 18.5 16H14.5C13.9697 16.0005 13.4613 16.2114 13.0864 16.5864C12.7114 16.9613 12.5005 17.4697 12.5 18V26H6.5V12.062L16.5 4.27202L26.5 12.072V26H20.5Z" fill="white"/>
</svg>
