<svg width="1306" height="72" viewBox="0 0 1306 72" fill="none" xmlns="http://www.w3.org/2000/svg">
<path d="M523.1 2.09528C549.352 2.09528 570.681 22.1116 570.681 46.8969C570.681 71.6822 549.423 91.6313 523.1 91.6313C496.778 91.6313 475.52 71.615 475.52 46.8297C475.52 22.0444 496.849 2.09528 523.1 2.09528Z" fill="#A6A6A6"/>
<path d="M1158.88 0.000427246C1185.13 0.000427246 1206.46 20.0168 1206.46 44.8021C1206.46 69.5874 1185.2 89.5365 1158.88 89.5365C1132.56 89.5365 1111.3 69.5202 1111.3 44.7349C1111.3 19.9496 1132.63 0.000427246 1158.88 0.000427246Z" fill="#A6A6A6"/>
<path d="M475.591 91.6313V2.09528L380.501 2.09528V91.6313L475.591 91.6313Z" fill="#F0F0F2"/>
<path d="M380.43 2.09528C432.933 2.09528 475.52 42.1951 475.52 91.6313L380.43 91.6313V2.09528Z" fill="#D62828"/>
<path d="M380.43 91.6313V2.09528L285.34 2.09528V91.6313L380.43 91.6313Z" fill="#D2D6D9"/>
<path d="M332.921 24.4626C346.047 24.4626 356.676 34.4707 356.676 46.8298C356.676 59.1889 346.047 69.197 332.921 69.197C319.796 69.197 309.167 59.1889 309.167 46.8298C309.095 34.4707 319.796 24.4626 332.921 24.4626Z" fill="#EC2F28"/>
<path d="M285.34 91.6313V2.09528L190.25 2.09528V91.6313L285.34 91.6313Z" fill="#262626"/>
<path d="M285.34 91.6313C232.837 91.6313 190.25 51.5315 190.25 2.09528L285.34 2.09528V91.6313Z" fill="#D2D6D9"/>
<path d="M95.0893 2.09528C147.592 2.09528 190.179 42.1951 190.179 91.6313L95.0893 91.6313L95.0893 2.09528Z" fill="#EC2F28"/>
<path d="M95.0898 91.6313L95.0898 2.09528L0.000404358 2.09528L0.000404358 91.6313L95.0898 91.6313Z" fill="#F0F0F2"/>
<path d="M95.0898 91.6313C42.5873 91.6313 0.000404358 51.5315 0.000404358 2.09528L95.0898 2.09528L95.0898 91.6313Z" fill="#EC2F28"/>
<path d="M670.219 2.09498V91.631L575.129 91.631V2.09498L670.219 2.09498Z" fill="#EC2F28"/>
<path d="M1306 7.62939e-06V89.5361L1210.91 89.5361V7.62939e-06L1306 7.62939e-06Z" fill="#EC2F28"/>
<path d="M622.71 24.4625C609.585 24.4625 598.956 34.4706 598.956 46.8297C598.956 59.1887 609.585 69.1969 622.71 69.1969C635.836 69.1969 646.465 59.1887 646.465 46.8297C646.465 34.4706 635.836 24.4625 622.71 24.4625Z" fill="#F2F1F1"/>
<path d="M1258.49 22.3675C1245.37 22.3675 1234.74 32.3756 1234.74 44.7347C1234.74 57.0938 1245.37 67.1019 1258.49 67.1019C1271.62 67.1019 1282.25 57.0938 1282.25 44.7347C1282.25 32.3756 1271.62 22.3675 1258.49 22.3675Z" fill="#F2F1F1"/>
<path d="M765.381 2.09504V91.6311L670.291 91.6311V2.09504L765.381 2.09504Z" fill="#D2D6D9"/>
<path d="M765.381 2.09504C712.878 2.09504 670.291 42.1948 670.291 91.6311L765.381 91.6311V2.09504Z" fill="#262626"/>
<path d="M860.471 2.09504V91.6311L765.381 91.6311V2.09504L860.471 2.09504Z" fill="#F2F1F1"/>
<path d="M765.381 91.6311C817.884 91.6311 860.471 51.5313 860.471 2.09504L765.381 2.09504V91.6311Z" fill="#262626"/>
<path d="M908.05 2.09504C881.798 2.09504 860.469 22.1114 860.469 46.8967C860.469 71.682 881.727 91.6311 908.05 91.6311C934.372 91.6311 955.63 71.6148 955.63 46.8295C955.63 22.0442 934.301 2.09504 908.05 2.09504Z" fill="#D62828"/>
<path d="M1050.72 2.09504V91.6311L955.629 91.6311V2.09504L1050.72 2.09504Z" fill="#D2D6D9"/>
<path d="M1003.14 2.09504C976.887 2.09504 955.558 22.1114 955.558 46.8967C955.558 71.682 976.887 91.6311 1003.14 91.6311C1029.39 91.6311 1050.72 71.6148 1050.72 46.8295C1050.72 22.0442 1029.39 2.09504 1003.14 2.09504Z" fill="#F2F1F1"/>
<path d="M1145.81 2.09504V91.6311L1050.72 91.6311V2.09504L1145.81 2.09504Z" fill="#D2D6D9"/>
<path d="M1145.81 91.6311C1145.81 42.1948 1103.22 2.09504 1050.72 2.09504V91.6311L1145.81 91.6311Z" fill="#D62828"/>
</svg>
