<svg width="55" height="55" viewBox="0 0 55 55" fill="none" xmlns="http://www.w3.org/2000/svg">
<g id="creative_2421305">
<g id="Outline">
<g id="Group">
<path id="Vector" d="M10.9037 34.064C10.9037 33.8414 10.8153 33.628 10.658 33.4706C10.5006 33.3133 10.2872 33.2249 10.0647 33.2249H3.2582V3.01864H31.5992V7.21395C31.5992 7.43649 31.6876 7.6499 31.845 7.80726C32.0023 7.96461 32.2157 8.05302 32.4383 8.05302C32.6608 8.05302 32.8742 7.96461 33.0316 7.80726C33.1889 7.6499 33.2773 7.43649 33.2773 7.21395V2.17958C33.2773 1.95704 33.1889 1.74363 33.0316 1.58627C32.8742 1.42892 32.6608 1.34052 32.4383 1.34052H2.41914C2.19661 1.34052 1.98319 1.42892 1.82583 1.58627C1.66848 1.74363 1.58008 1.95704 1.58008 2.17958V34.064C1.58008 34.2865 1.66848 34.4999 1.82583 34.6573C1.98319 34.8146 2.19661 34.903 2.41914 34.903H10.0647C10.2872 34.903 10.5006 34.8146 10.658 34.6573C10.8153 34.4999 10.9037 34.2865 10.9037 34.064Z" fill="#D62828"/>
<path id="Vector_2" d="M48.9873 6.54941C48.3959 6.20956 47.7611 5.95157 47.1002 5.78251C46.8847 5.72688 46.6559 5.75914 46.4642 5.8722C46.2724 5.98526 46.1335 6.16985 46.0778 6.38538C46.0222 6.6009 46.0545 6.8297 46.1675 7.02143C46.2806 7.21317 46.4652 7.35214 46.6807 7.40778C47.9905 7.74489 49.1436 8.52414 49.945 9.61367C50.7463 10.7032 51.1466 12.0361 51.0782 13.3869C51.0098 14.7376 50.4769 16.0233 49.5696 17.0263C48.6623 18.0293 47.4364 18.6881 46.0992 18.8912C45.975 18.9099 45.8566 18.9564 45.7528 19.0273C45.6491 19.0982 45.5627 19.1917 45.5002 19.3006L45.1813 19.8528L44.5403 19.4827L48.4839 14.1178C48.5672 14.0043 48.6207 13.8718 48.6395 13.7323C48.6582 13.5927 48.6415 13.4507 48.5909 13.3194C48.5403 13.188 48.4575 13.0715 48.3501 12.9805C48.2427 12.8895 48.1141 12.827 47.9762 12.7988L45.6512 12.3222L44.0754 10.5467C43.982 10.4414 43.8636 10.3613 43.7311 10.3137C43.5986 10.2661 43.4562 10.2527 43.3172 10.2746C43.1781 10.2965 43.0468 10.353 42.9353 10.439C42.8238 10.525 42.7357 10.6376 42.6792 10.7665L40.0093 16.8674L39.3683 16.4965L39.6871 15.9444C39.7499 15.8355 39.7873 15.7139 39.7968 15.5885C39.8062 15.4632 39.7874 15.3374 39.7417 15.2203C39.4395 14.4473 39.3048 13.6189 39.3465 12.7899C39.3882 11.961 39.6054 11.1503 39.9837 10.4116C40.362 9.67279 40.8928 9.02272 41.5411 8.50434C42.1893 7.98595 42.9401 7.61105 43.744 7.40442C43.8507 7.37687 43.951 7.32858 44.039 7.26229C44.1271 7.196 44.2012 7.11302 44.2572 7.01808C44.3132 6.92314 44.3499 6.8181 44.3653 6.70897C44.3807 6.59983 44.3744 6.48874 44.3469 6.38202C44.3193 6.2753 44.271 6.17506 44.2047 6.08701C44.1384 5.99896 44.0555 5.92482 43.9605 5.86884C43.8656 5.81286 43.7605 5.77613 43.6514 5.76074C43.5423 5.74535 43.4312 5.75161 43.3245 5.77915C42.3244 6.03617 41.3877 6.49583 40.5725 7.12965C39.7573 7.76347 39.081 8.55794 38.5854 9.46383C38.0898 10.3697 37.7856 11.3677 37.6915 12.396C37.5974 13.4243 37.7154 14.461 38.0384 15.4418L37.8362 15.7925C37.419 15.7136 36.9887 15.7419 36.5856 15.8748C36.1824 16.0077 35.8196 16.2408 35.5312 16.5523C35.2427 16.8638 35.0382 17.2434 34.9366 17.6556C34.8351 18.0678 34.8399 18.499 34.9506 18.9088C35.049 19.2696 35.2277 19.6035 35.4734 19.8855L35.397 20.018C35.2821 20.2203 35.1815 20.4303 35.0958 20.6465L34.636 20.3805C34.4857 20.2937 34.3122 20.2557 34.1394 20.2716C33.9666 20.2875 33.8029 20.3567 33.671 20.4695C33.2798 20.8035 32.8304 21.0626 32.3453 21.2338C32.1819 21.2917 32.0405 21.3988 31.9404 21.5403C31.8404 21.6819 31.7866 21.8509 31.7865 22.0242V22.2667C28.8302 19.8379 26.7055 16.5472 25.7083 12.8533C25.6759 12.7324 25.6169 12.6203 25.5356 12.5252C25.4542 12.4301 25.3526 12.3544 25.2382 12.3036C25.1238 12.2528 24.9995 12.2283 24.8744 12.2318C24.7493 12.2353 24.6266 12.2668 24.5152 12.3238C21.8502 13.717 19.6169 15.8123 18.0567 18.383C16.4965 20.9538 15.6688 23.9021 15.6631 26.9093C15.6631 27.1318 15.7515 27.3452 15.9088 27.5026C16.0662 27.6599 16.2796 27.7483 16.5021 27.7483C16.7247 27.7483 16.9381 27.6599 17.0955 27.5026C17.2528 27.3452 17.3412 27.1318 17.3412 26.9093C17.3467 24.3834 17.9969 21.9007 19.2304 19.6964C20.4638 17.4922 22.2395 15.6393 24.3893 14.3133C25.7546 18.4645 28.4349 22.058 32.0248 24.5498C32.0515 24.5716 32.0796 24.5918 32.1087 24.6102C36.0967 27.38 40.9544 28.6081 45.7796 28.0663C45.5112 30.5565 44.5867 32.9308 43.1004 34.9466C43.0841 34.9738 43.0692 35.0018 43.056 35.0306C42.3961 35.9191 41.6359 36.7286 40.7905 37.4429C40.6236 37.5872 40.5202 37.7915 40.5029 38.0116C40.4856 38.2316 40.5556 38.4496 40.6979 38.6183C40.8401 38.787 41.0431 38.8929 41.2629 38.9131C41.4827 38.9332 41.7015 38.8659 41.872 38.7258C42.1951 38.4539 42.4879 38.1519 42.7875 37.8557C42.6606 42.792 43.7468 47.6841 45.9507 52.103C46.0204 52.2424 46.1276 52.3597 46.2603 52.4417C46.3929 52.5237 46.5458 52.567 46.7017 52.567C46.8317 52.5671 46.9599 52.5366 47.0759 52.478C47.2749 52.3786 47.4263 52.2042 47.4968 51.9933C47.5673 51.7823 47.5511 51.5519 47.4518 51.3528C45.0434 46.5279 44.05 41.1197 44.5864 35.7538C46.3923 33.2288 47.4138 30.2274 47.5231 27.1249C47.5284 27.0008 47.506 26.877 47.4576 26.7626C47.4092 26.6482 47.336 26.5459 47.2433 26.4633C47.1505 26.3806 47.0406 26.3195 46.9214 26.2845C46.8022 26.2494 46.6767 26.2413 46.554 26.2607C45.5556 26.4264 44.5454 26.5105 43.5334 26.5124C43.311 26.5124 43.0929 26.4923 42.873 26.4847C43.3762 26.0909 43.7997 25.6048 44.1207 25.0524L44.2046 24.9115C44.3513 24.9451 44.5007 24.965 44.651 24.971C44.8722 24.9718 45.0925 24.9436 45.3063 24.8871C45.7181 24.7798 46.0956 24.5692 46.4033 24.2753C46.7109 23.9814 46.9385 23.6139 47.0645 23.2075C47.1906 22.801 47.2108 22.3692 47.1234 21.9528C47.0359 21.5364 46.8437 21.1492 46.5649 20.8277L46.7663 20.4795C48.2623 20.1649 49.6275 19.4037 50.6816 18.2965C51.7356 17.1893 52.4288 15.7882 52.6695 14.2786C52.9102 12.769 52.6871 11.2219 52.0296 9.84177C51.3721 8.46168 50.3113 7.31364 48.9873 6.54941ZM43.6928 12.641L44.5839 13.6479C44.7044 13.7837 44.8658 13.8767 45.0437 13.913L46.3577 14.1824L43.0769 18.6411L42.2748 18.1771L41.4718 17.714L43.6928 12.641ZM42.6633 24.2134C42.2182 24.984 41.4853 25.5463 40.6257 25.7766C39.7661 26.007 38.8503 25.8865 38.0795 25.4417C37.3095 24.9959 36.7478 24.2628 36.5175 23.4034C36.2872 22.5439 36.4072 21.6282 36.8511 20.8571L39.7576 22.5352L42.6633 24.2134ZM33.4646 23.5153V22.5847C33.7495 22.4504 34.0228 22.293 34.2819 22.114L34.7266 22.3716C34.7063 23.0887 34.8384 23.802 35.1142 24.4642C34.5483 24.1767 33.9977 23.8599 33.4646 23.5153ZM45.3743 22.8725C45.263 23.0648 45.0801 23.2051 44.8655 23.2626C44.651 23.3202 44.4224 23.2904 44.2298 23.1796L36.9635 18.9843C36.778 18.8695 36.6445 18.687 36.5913 18.4755C36.538 18.2639 36.5693 18.0399 36.6784 17.851C36.7876 17.6622 36.966 17.5232 37.1758 17.4636C37.3857 17.404 37.6105 17.4285 37.8026 17.5319L39.9842 18.7905L42.8898 20.4686L45.0714 21.7272C45.2638 21.8388 45.4041 22.0222 45.4613 22.2371C45.5186 22.452 45.4882 22.6809 45.3768 22.8734L45.3743 22.8725Z" fill="#D62828"/>
<path id="Vector_3" d="M5.77559 6.37489C6.23899 6.37489 6.61465 5.99923 6.61465 5.53582C6.61465 5.07242 6.23899 4.69676 5.77559 4.69676C5.31218 4.69676 4.93652 5.07242 4.93652 5.53582C4.93652 5.99923 5.31218 6.37489 5.77559 6.37489Z" fill="#D62828"/>
<path id="Vector_4" d="M9.13154 6.37489C9.59494 6.37489 9.97061 5.99923 9.97061 5.53582C9.97061 5.07242 9.59494 4.69676 9.13154 4.69676C8.66814 4.69676 8.29248 5.07242 8.29248 5.53582C8.29248 5.99923 8.66814 6.37489 9.13154 6.37489Z" fill="#D62828"/>
<path id="Vector_5" d="M12.488 6.37489C12.9514 6.37489 13.3271 5.99923 13.3271 5.53582C13.3271 5.07242 12.9514 4.69676 12.488 4.69676C12.0246 4.69676 11.6489 5.07242 11.6489 5.53582C11.6489 5.99923 12.0246 6.37489 12.488 6.37489Z" fill="#D62828"/>
<path id="Vector_6" d="M30.1084 5.53582C30.1084 5.31329 30.02 5.09987 29.8626 4.94252C29.7053 4.78516 29.4919 4.69676 29.2693 4.69676H18.3615C18.139 4.69676 17.9256 4.78516 17.7682 4.94252C17.6109 5.09987 17.5225 5.31329 17.5225 5.53582C17.5225 5.75836 17.6109 5.97178 17.7682 6.12913C17.9256 6.28649 18.139 6.37489 18.3615 6.37489H29.2693C29.4919 6.37489 29.7053 6.28649 29.8626 6.12913C30.02 5.97178 30.1084 5.75836 30.1084 5.53582Z" fill="#D62828"/>
<path id="Vector_7" d="M15.0049 8.05301V17.2827C15.0049 17.5052 15.0933 17.7187 15.2506 17.876C15.408 18.0334 15.6214 18.1218 15.8439 18.1218C16.0665 18.1218 16.2799 18.0334 16.4373 17.876C16.5946 17.7187 16.683 17.5052 16.683 17.2827V8.05301C16.683 7.83048 16.5946 7.61706 16.4373 7.45971C16.2799 7.30235 16.0665 7.21395 15.8439 7.21395C15.6214 7.21395 15.408 7.30235 15.2506 7.45971C15.0933 7.61706 15.0049 7.83048 15.0049 8.05301Z" fill="#D62828"/>
<path id="Vector_8" d="M11.649 15.6046V10.5702C11.649 10.3477 11.5606 10.1343 11.4033 9.9769C11.2459 9.81954 11.0325 9.73114 10.81 9.73114H5.77559C5.55305 9.73114 5.33963 9.81954 5.18228 9.9769C5.02492 10.1343 4.93652 10.3477 4.93652 10.5702V15.6046C4.93652 15.8271 5.02492 16.0405 5.18228 16.1979C5.33963 16.3552 5.55305 16.4436 5.77559 16.4436H10.81C11.0325 16.4436 11.2459 16.3552 11.4033 16.1979C11.5606 16.0405 11.649 15.8271 11.649 15.6046ZM9.9709 14.7655H6.61465V11.4093H9.9709V14.7655Z" fill="#D62828"/>
<path id="Vector_9" d="M9.9709 18.9608C9.9709 18.7383 9.8825 18.5249 9.72514 18.3675C9.56779 18.2102 9.35437 18.1218 9.13184 18.1218H5.77559C5.55305 18.1218 5.33963 18.2102 5.18228 18.3675C5.02492 18.5249 4.93652 18.7383 4.93652 18.9608C4.93652 19.1834 5.02492 19.3968 5.18228 19.5541C5.33963 19.7115 5.55305 19.7999 5.77559 19.7999H8.29277V21.478H5.77559C5.55305 21.478 5.33963 21.5664 5.18228 21.7238C5.02492 21.8811 4.93652 22.0945 4.93652 22.3171C4.93652 22.5396 5.02492 22.753 5.18228 22.9104C5.33963 23.0677 5.55305 23.1561 5.77559 23.1561H9.13184C9.35437 23.1561 9.56779 23.0677 9.72514 22.9104C9.8825 22.753 9.9709 22.5396 9.9709 22.3171V18.9608Z" fill="#D62828"/>
<path id="Vector_10" d="M7.45371 25.6733C6.95586 25.6733 6.46919 25.821 6.05524 26.0975C5.64129 26.3741 5.31865 26.7673 5.12813 27.2272C4.93761 27.6872 4.88777 28.1933 4.98489 28.6816C5.08202 29.1699 5.32176 29.6184 5.67379 29.9704C6.02583 30.3225 6.47435 30.5622 6.96263 30.6593C7.45092 30.7565 7.95704 30.7066 8.417 30.5161C8.87695 30.3256 9.27008 30.0029 9.54668 29.589C9.82327 29.175 9.9709 28.6884 9.9709 28.1905C9.9709 27.5229 9.7057 26.8827 9.23363 26.4106C8.76157 25.9385 8.12131 25.6733 7.45371 25.6733ZM7.45371 29.0296C7.28776 29.0296 7.12554 28.9804 6.98755 28.8882C6.84957 28.796 6.74203 28.6649 6.67852 28.5116C6.61501 28.3583 6.5984 28.1896 6.63077 28.0268C6.66315 27.8641 6.74306 27.7145 6.86041 27.5972C6.97775 27.4799 7.12726 27.3999 7.29002 27.3676C7.45278 27.3352 7.62149 27.3518 7.77481 27.4153C7.92813 27.4788 8.05917 27.5864 8.15137 27.7244C8.24356 27.8623 8.29277 28.0246 8.29277 28.1905C8.29277 28.413 8.20437 28.6265 8.04702 28.7838C7.88966 28.9412 7.67624 29.0296 7.45371 29.0296Z" fill="#D62828"/>
<path id="Vector_11" d="M25.0738 9.73114C25.0738 9.5086 24.9854 9.29519 24.8281 9.13783C24.6707 8.98048 24.4573 8.89207 24.2348 8.89207H19.2004C18.9779 8.89207 18.7644 8.98048 18.6071 9.13783C18.4497 9.29519 18.3613 9.5086 18.3613 9.73114C18.3613 9.95367 18.4497 10.1671 18.6071 10.3244C18.7644 10.4818 18.9779 10.5702 19.2004 10.5702H24.2348C24.4573 10.5702 24.6707 10.4818 24.8281 10.3244C24.9854 10.1671 25.0738 9.95367 25.0738 9.73114Z" fill="#D62828"/>
<path id="Vector_12" d="M19.2004 12.2483C18.9779 12.2483 18.7644 12.3367 18.6071 12.4941C18.4497 12.6514 18.3613 12.8649 18.3613 13.0874C18.3613 13.3099 18.4497 13.5233 18.6071 13.6807C18.7644 13.8381 18.9779 13.9265 19.2004 13.9265H20.0395C20.262 13.9265 20.4754 13.8381 20.6328 13.6807C20.7901 13.5233 20.8785 13.3099 20.8785 13.0874C20.8785 12.8649 20.7901 12.6514 20.6328 12.4941C20.4754 12.3367 20.262 12.2483 20.0395 12.2483H19.2004Z" fill="#D62828"/>
<path id="Vector_13" d="M13.3271 44.9718H9.13184C8.46424 44.9718 7.82398 44.7066 7.35192 44.2345C6.87985 43.7624 6.61465 43.1222 6.61465 42.4546V37.4202C6.61465 37.1977 6.52625 36.9843 6.36889 36.8269C6.21154 36.6695 5.99812 36.5811 5.77559 36.5811C5.55305 36.5811 5.33963 36.6695 5.18228 36.8269C5.02492 36.9843 4.93652 37.1977 4.93652 37.4202V42.4546C4.93786 43.5668 5.38029 44.6332 6.16677 45.4196C6.95326 46.2061 8.01958 46.6486 9.13184 46.6499H13.3271C13.5497 46.6499 13.7631 46.5615 13.9205 46.4041C14.0778 46.2468 14.1662 46.0334 14.1662 45.8108C14.1662 45.5883 14.0778 45.3749 13.9205 45.2175C13.7631 45.0602 13.5497 44.9718 13.3271 44.9718Z" fill="#D62828"/>
<path id="Vector_14" d="M37.595 42.6878C37.4933 42.6454 37.3843 42.6234 37.2741 42.6231C37.1639 42.6229 37.0547 42.6443 36.9528 42.6862C36.8509 42.7281 36.7582 42.7897 36.6801 42.8675C36.602 42.9452 36.54 43.0375 36.4976 43.1393C35.5325 45.4827 33.8783 47.4777 31.754 48.86C29.6298 50.2423 27.1357 50.9466 24.6022 50.8796C20.9942 50.7957 18.3763 48.1946 17.591 44.1671H23.2127C23.4352 44.1671 23.6486 44.0787 23.806 43.9213C23.9633 43.764 24.0517 43.5506 24.0517 43.328C24.0517 43.1055 23.9633 42.8921 23.806 42.7347C23.6486 42.5774 23.4352 42.489 23.2127 42.489H17.3728C17.3527 42.1802 17.3409 41.8656 17.3409 41.5442V40.8109C17.3418 40.6542 17.2988 40.5005 17.2168 40.367C17.1348 40.2335 17.017 40.1257 16.8769 40.0557L12.5717 37.9102L16.1209 30.2202C16.2142 30.0181 16.2233 29.7873 16.1464 29.5785C16.0694 29.3697 15.9127 29.2 15.7106 29.1068C15.5086 29.0135 15.2777 29.0044 15.0689 29.0813C14.8601 29.1583 14.6904 29.315 14.5972 29.5171L10.7056 37.9455C10.6143 38.1433 10.6036 38.3688 10.6756 38.5744C10.7476 38.78 10.8968 38.9495 11.0916 39.0471L15.6628 41.3327V41.5475C15.6628 47.9127 19.3228 52.4394 24.5644 52.5569C24.6752 52.5569 24.7851 52.5611 24.8958 52.5611C27.7116 52.5702 30.4663 51.7403 32.8085 50.1773C35.1507 48.6143 36.9742 46.389 38.0465 43.7853C38.0889 43.6836 38.1109 43.5746 38.1112 43.4644C38.1114 43.3542 38.09 43.245 38.0481 43.1431C38.0062 43.0412 37.9446 42.9485 37.8668 42.8704C37.7891 42.7923 37.6968 42.7302 37.595 42.6878Z" fill="#D62828"/>
<path id="Vector_15" d="M25.7318 26.1306C25.7318 25.5498 25.5596 24.982 25.2369 24.4991C24.9142 24.0161 24.4556 23.6397 23.919 23.4174C23.3823 23.1952 22.7919 23.137 22.2222 23.2503C21.6525 23.3636 21.1293 23.6433 20.7185 24.054C20.3078 24.4647 20.0281 24.988 19.9148 25.5577C19.8015 26.1274 19.8597 26.7178 20.0819 27.2544C20.3042 27.7911 20.6806 28.2497 21.1636 28.5724C21.6465 28.8951 22.2143 29.0673 22.7951 29.0673C23.574 29.0673 24.321 28.7579 24.8717 28.2072C25.4224 27.6564 25.7318 26.9095 25.7318 26.1306ZM21.5365 26.1306C21.5365 25.8817 21.6103 25.6384 21.7486 25.4314C21.8869 25.2244 22.0835 25.0631 22.3135 24.9678C22.5435 24.8726 22.7965 24.8476 23.0407 24.8962C23.2848 24.9448 23.5091 25.0646 23.6851 25.2407C23.8611 25.4167 23.981 25.6409 24.0295 25.8851C24.0781 26.1292 24.0532 26.3823 23.9579 26.6123C23.8626 26.8422 23.7013 27.0388 23.4944 27.1771C23.2874 27.3154 23.044 27.3892 22.7951 27.3892C22.4613 27.3892 22.1412 27.2566 21.9052 27.0206C21.6691 26.7845 21.5365 26.4644 21.5365 26.1306Z" fill="#D62828"/>
<path id="Vector_16" d="M32.6255 9.73114H29.2692C29.0467 9.73114 28.8333 9.81954 28.6759 9.9769C28.5186 10.1343 28.4302 10.3477 28.4302 10.5702V11.9807C28.1157 12.1293 27.8152 12.3059 27.5324 12.5084C27.4417 12.5721 27.3645 12.6531 27.3053 12.7467C27.246 12.8403 27.2059 12.9448 27.1873 13.054C27.1686 13.1632 27.1718 13.2751 27.1966 13.383C27.2214 13.491 27.2673 13.593 27.3318 13.6832C27.3962 13.7733 27.4778 13.8498 27.572 13.9082C27.6661 13.9666 27.7709 14.0058 27.8803 14.0235C27.9897 14.0412 28.1015 14.0371 28.2092 14.0114C28.317 13.9856 28.4186 13.9388 28.5082 13.8736C28.8282 13.6453 29.1787 13.4631 29.5495 13.3324C29.713 13.2745 29.8545 13.1673 29.9546 13.0256C30.0547 12.8839 30.1084 12.7146 30.1083 12.5412V11.4093H31.7864V12.5412C31.7865 12.7145 31.8403 12.8835 31.9404 13.0251C32.0404 13.1666 32.1819 13.2737 32.3452 13.3316C32.8303 13.5028 33.2797 13.7619 33.671 14.0959C33.8028 14.2087 33.9665 14.2779 34.1393 14.2938C34.3121 14.3097 34.4856 14.2717 34.6359 14.1849L36.0346 13.3769C36.1308 13.3222 36.2152 13.249 36.283 13.1615C36.3508 13.0741 36.4006 12.9741 36.4296 12.8673C36.4586 12.7605 36.4662 12.649 36.4519 12.5393C36.4377 12.4296 36.4019 12.3237 36.3465 12.2279C36.2912 12.1321 36.2175 12.0481 36.1296 11.9809C36.0417 11.9137 35.9413 11.8645 35.8343 11.8363C35.7274 11.808 35.6158 11.8011 35.5062 11.8161C35.3966 11.8311 35.291 11.8676 35.1955 11.9236L34.2818 12.4514C34.0225 12.2727 33.7492 12.1153 33.4645 11.9807V10.5702C33.4645 10.3477 33.3761 10.1343 33.2188 9.9769C33.0614 9.81954 32.848 9.73114 32.6255 9.73114Z" fill="#D62828"/>
<path id="Vector_17" d="M28.4302 17.2827C28.4302 17.7806 28.5778 18.2672 28.8544 18.6812C29.131 19.0951 29.5241 19.4178 29.9841 19.6083C30.444 19.7988 30.9502 19.8487 31.4384 19.7515C31.9267 19.6544 32.3752 19.4147 32.7273 19.0626C33.0793 18.7106 33.3191 18.2621 33.4162 17.7738C33.5133 17.2855 33.4635 16.7794 33.2729 16.3194C33.0824 15.8595 32.7598 15.4663 32.3458 15.1897C31.9319 14.9131 31.4452 14.7655 30.9474 14.7655C30.2798 14.7655 29.6395 15.0307 29.1674 15.5028C28.6954 15.9748 28.4302 16.6151 28.4302 17.2827ZM31.7864 17.2827C31.7864 17.4487 31.7372 17.6109 31.645 17.7489C31.5528 17.8868 31.4218 17.9944 31.2685 18.0579C31.1151 18.1214 30.9464 18.138 30.7837 18.1056C30.6209 18.0733 30.4714 17.9934 30.3541 17.876C30.2367 17.7587 30.1568 17.6092 30.1244 17.4464C30.092 17.2836 30.1087 17.1149 30.1722 16.9616C30.2357 16.8083 30.3432 16.6772 30.4812 16.585C30.6192 16.4929 30.7814 16.4436 30.9474 16.4436C31.1699 16.4436 31.3833 16.532 31.5407 16.6894C31.698 16.8468 31.7864 17.0602 31.7864 17.2827Z" fill="#D62828"/>
</g>
</g>
</g>
</svg>
