<svg width="55" height="55" viewBox="0 0 55 55" fill="none" xmlns="http://www.w3.org/2000/svg">
<g id="design_3586494">
<path id="Vector" d="M37.7616 18.4141L36.5751 17.2276C36.0957 16.77 35.4583 16.5147 34.7955 16.5147C34.1327 16.5147 33.4953 16.77 33.0158 17.2276L28.4656 21.777L23.589 16.9004C23.4316 16.7431 23.2183 16.6547 22.9958 16.6547C22.7733 16.6547 22.5599 16.7431 22.4025 16.9004L17.6543 21.6411C17.5763 21.719 17.5144 21.8116 17.4722 21.9134C17.4299 22.0153 17.4082 22.1245 17.4082 22.2348C17.4082 22.345 17.4299 22.4542 17.4722 22.5561C17.5144 22.6579 17.5763 22.7505 17.6543 22.8284L22.5351 27.7092L21.149 29.0945C21.0784 29.1676 21.0215 29.2529 20.9812 29.3462H20.9761L18.0101 35.8725C17.9412 36.0279 17.9211 36.2006 17.9526 36.3677C17.9841 36.5348 18.0656 36.6884 18.1863 36.8082C18.3071 36.9279 18.4613 37.0081 18.6287 37.0382C18.7961 37.0683 18.9686 37.0468 19.1235 36.9767L25.6506 34.0089V34.0039C25.7428 33.9638 25.8267 33.9069 25.8981 33.836L27.2809 32.4541L31.8957 37.069C32.053 37.226 32.2662 37.3142 32.4885 37.3142C32.7108 37.3142 32.924 37.226 33.0813 37.069L37.8304 32.3283C37.9084 32.2503 37.9703 32.1578 38.0125 32.0559C38.0547 31.9541 38.0765 31.8449 38.0765 31.7346C38.0765 31.6244 38.0547 31.5152 38.0125 31.4133C37.9703 31.3114 37.9084 31.2189 37.8304 31.141L33.2155 26.5261L37.7641 21.9776C37.9982 21.7436 38.1839 21.4657 38.3105 21.1599C38.4371 20.8541 38.5022 20.5263 38.5019 20.1953C38.5017 19.8643 38.4362 19.5366 38.3092 19.231C38.1821 18.9253 37.996 18.6477 37.7616 18.4141ZM19.4348 22.2352L22.9949 18.6801L24.1814 19.8657L22.9958 21.0504L24.1822 22.2368L25.3678 21.0521L27.2792 22.9643L23.7215 26.5228L19.4348 22.2352ZM20.466 34.5241L22.0057 31.1359L23.8516 32.9819L20.466 34.5241ZM33.6745 29.358L32.4889 30.5436L33.6753 31.73L34.8609 30.5444L36.0482 31.7317L32.4872 35.2868L28.4673 31.271L32.0266 27.7126L33.6745 29.358ZM25.3023 32.0598L22.9286 29.6869L32.4226 20.1954L34.7955 22.5691L25.3023 32.0598ZM36.5751 20.7878L35.9819 21.381L33.6091 19.0073L34.2031 18.4141C34.3627 18.2614 34.5751 18.1762 34.7959 18.1762C35.0168 18.1762 35.2291 18.2614 35.3887 18.4141L36.5751 19.6005C36.6532 19.6784 36.715 19.771 36.7573 19.8728C36.7995 19.9747 36.8212 20.0839 36.8212 20.1941C36.8212 20.3044 36.7995 20.4136 36.7573 20.5155C36.715 20.6173 36.6532 20.7099 36.5751 20.7878Z" fill="#D62828"/>
<path id="Vector_2" d="M51.1211 7.58095C51.5373 7.09314 51.805 6.49632 51.8927 5.86112C51.9803 5.22591 51.8841 4.5789 51.6155 3.99666C51.3468 3.41441 50.9171 2.92129 50.377 2.57566C49.8369 2.23003 49.2091 2.04634 48.5679 2.04634C47.9267 2.04634 47.2989 2.23003 46.7588 2.57566C46.2187 2.92129 45.7889 3.41441 45.5203 3.99666C45.2517 4.5789 45.1555 5.22591 45.2431 5.86112C45.3307 6.49632 45.5984 7.09314 46.0146 7.58095C45.5162 7.87232 45.1025 8.28879 44.8145 8.78916C44.5265 9.28953 44.3742 9.85643 44.3726 10.4338V14.6576C44.3726 14.8801 44.461 15.0936 44.6183 15.2509C44.7757 15.4083 44.9891 15.4967 45.2116 15.4967H51.9241C52.1467 15.4967 52.3601 15.4083 52.5174 15.2509C52.6748 15.0936 52.7632 14.8801 52.7632 14.6576V10.4338C52.7616 9.85643 52.6092 9.28953 52.3212 8.78916C52.0332 8.28879 51.6196 7.87232 51.1211 7.58095ZM48.5679 3.74979C48.8998 3.74979 49.2242 3.84821 49.5002 4.0326C49.7762 4.217 49.9912 4.47909 50.1183 4.78572C50.2453 5.09236 50.2785 5.42978 50.2138 5.7553C50.149 6.08082 49.9892 6.37984 49.7545 6.61453C49.5198 6.84922 49.2208 7.00904 48.8953 7.07379C48.5697 7.13855 48.2323 7.10531 47.9257 6.9783C47.619 6.85129 47.357 6.6362 47.1726 6.36023C46.9882 6.08426 46.8897 5.75982 46.8897 5.42791C46.8897 4.98285 47.0665 4.55601 47.3813 4.2413C47.696 3.92659 48.1228 3.74979 48.5679 3.74979ZM51.0851 13.8185H46.0507V10.4338C46.0511 9.9964 46.2251 9.57707 46.5343 9.26781C46.8436 8.95855 47.2629 8.78461 47.7003 8.78416H49.4355C49.8728 8.78461 50.2921 8.95855 50.6014 9.26781C50.9107 9.57707 51.0846 9.9964 51.0851 10.4338V13.8185Z" fill="#D62828"/>
<path id="Vector_3" d="M51.1211 44.4997C51.5373 44.0119 51.805 43.4151 51.8927 42.7799C51.9803 42.1447 51.8841 41.4977 51.6155 40.9154C51.3468 40.3332 50.9171 39.84 50.377 39.4944C49.8369 39.1488 49.2091 38.9651 48.5679 38.9651C47.9267 38.9651 47.2989 39.1488 46.7588 39.4944C46.2187 39.84 45.7889 40.3332 45.5203 40.9154C45.2517 41.4977 45.1555 42.1447 45.2431 42.7799C45.3307 43.4151 45.5984 44.0119 46.0146 44.4997C45.5162 44.7911 45.1025 45.2075 44.8145 45.7079C44.5265 46.2083 44.3742 46.7752 44.3726 47.3525V51.5764C44.3726 51.7989 44.461 52.0123 44.6183 52.1697C44.7757 52.327 44.9891 52.4154 45.2116 52.4154H51.9241C52.1467 52.4154 52.3601 52.327 52.5174 52.1697C52.6748 52.0123 52.7632 51.7989 52.7632 51.5764V47.3525C52.7616 46.7752 52.6092 46.2083 52.3212 45.7079C52.0332 45.2075 51.6196 44.7911 51.1211 44.4997ZM48.5679 40.6685C48.8998 40.6685 49.2242 40.767 49.5002 40.9514C49.7762 41.1357 49.9912 41.3978 50.1183 41.7045C50.2453 42.0111 50.2785 42.3485 50.2138 42.674C50.149 42.9996 49.9892 43.2986 49.7545 43.5333C49.5198 43.768 49.2208 43.9278 48.8953 43.9925C48.5697 44.0573 48.2323 44.0241 47.9257 43.897C47.619 43.77 47.357 43.5549 47.1726 43.279C46.9882 43.003 46.8897 42.6786 46.8897 42.3467C46.8897 41.9016 47.0665 41.4748 47.3813 41.16C47.696 40.8453 48.1228 40.6685 48.5679 40.6685ZM51.0851 50.7373H46.0507V47.3525C46.0511 46.9151 46.2251 46.4958 46.5343 46.1866C46.8436 45.8773 47.2629 45.7034 47.7003 45.7029H49.4355C49.8728 45.7034 50.2921 45.8773 50.6014 46.1866C50.9107 46.4958 51.0846 46.9151 51.0851 47.3525V50.7373Z" fill="#D62828"/>
<path id="Vector_4" d="M3.2585 52.4154H9.971C10.1935 52.4154 10.4069 52.327 10.5643 52.1697C10.7217 52.0123 10.8101 51.7989 10.8101 51.5764V47.3525C10.8085 46.7752 10.6561 46.2083 10.3681 45.7079C10.0801 45.2075 9.66643 44.7911 9.16801 44.4997C9.58419 44.0119 9.85192 43.4151 9.93953 42.7799C10.0271 42.1447 9.93094 41.4977 9.66233 40.9154C9.39372 40.3332 8.96395 39.84 8.42385 39.4944C7.88376 39.1488 7.25596 38.9651 6.61475 38.9651C5.97353 38.9651 5.34573 39.1488 4.80564 39.4944C4.26555 39.84 3.83577 40.3332 3.56716 40.9154C3.29856 41.4977 3.20236 42.1447 3.28997 42.7799C3.37757 43.4151 3.6453 44.0119 4.06148 44.4997C3.56306 44.7911 3.14938 45.2075 2.86138 45.7079C2.57337 46.2083 2.42103 46.7752 2.41943 47.3525V51.5764C2.41943 51.7989 2.50783 52.0123 2.66519 52.1697C2.82254 52.327 3.03596 52.4154 3.2585 52.4154ZM6.61475 40.6685C6.94665 40.6685 7.2711 40.767 7.54706 40.9514C7.82303 41.1357 8.03812 41.3978 8.16513 41.7045C8.29214 42.0111 8.32538 42.3485 8.26063 42.674C8.19588 42.9996 8.03605 43.2986 7.80136 43.5333C7.56667 43.768 7.26766 43.9278 6.94213 43.9925C6.61661 44.0573 6.27919 44.0241 5.97256 43.897C5.66592 43.77 5.40383 43.5549 5.21944 43.279C5.03504 43.003 4.93662 42.6786 4.93662 42.3467C4.93662 41.9016 5.11342 41.4748 5.42813 41.16C5.74284 40.8453 6.16968 40.6685 6.61475 40.6685ZM4.09756 47.3525C4.098 46.9151 4.27194 46.4958 4.5812 46.1866C4.89047 45.8773 5.30979 45.7034 5.74716 45.7029H7.48234C7.9197 45.7034 8.33902 45.8773 8.64829 46.1866C8.95755 46.4958 9.13149 46.9151 9.13193 47.3525V50.7373H4.09756V47.3525Z" fill="#D62828"/>
<path id="Vector_5" d="M3.2585 15.4967H9.971C10.1935 15.4967 10.4069 15.4083 10.5643 15.2509C10.7217 15.0936 10.8101 14.8801 10.8101 14.6576V10.4338C10.8085 9.85643 10.6561 9.28953 10.3681 8.78916C10.0801 8.28879 9.66643 7.87232 9.16801 7.58095C9.58419 7.09314 9.85192 6.49632 9.93953 5.86112C10.0271 5.22591 9.93094 4.5789 9.66233 3.99666C9.39372 3.41441 8.96395 2.92129 8.42385 2.57566C7.88376 2.23003 7.25596 2.04634 6.61475 2.04634C5.97353 2.04634 5.34573 2.23003 4.80564 2.57566C4.26555 2.92129 3.83577 3.41441 3.56716 3.99666C3.29856 4.5789 3.20236 5.22591 3.28997 5.86112C3.37757 6.49632 3.6453 7.09314 4.06148 7.58095C3.56306 7.87232 3.14938 8.28879 2.86138 8.78916C2.57337 9.28953 2.42103 9.85643 2.41943 10.4338V14.6576C2.41943 14.8801 2.50783 15.0936 2.66519 15.2509C2.82254 15.4083 3.03596 15.4967 3.2585 15.4967ZM6.61475 3.74979C6.94665 3.74979 7.2711 3.84821 7.54706 4.0326C7.82303 4.217 8.03812 4.47909 8.16513 4.78572C8.29214 5.09236 8.32538 5.42978 8.26063 5.7553C8.19588 6.08082 8.03605 6.37984 7.80136 6.61453C7.56667 6.84922 7.26766 7.00904 6.94213 7.07379C6.61661 7.13855 6.27919 7.10531 5.97256 6.9783C5.66592 6.85129 5.40383 6.6362 5.21944 6.36023C5.03504 6.08426 4.93662 5.75982 4.93662 5.42791C4.93662 4.98285 5.11342 4.55601 5.42813 4.2413C5.74284 3.92659 6.16968 3.74979 6.61475 3.74979ZM4.09756 10.4338C4.098 9.9964 4.27194 9.57707 4.5812 9.26781C4.89047 8.95855 5.30979 8.78461 5.74716 8.78416H7.48234C7.9197 8.78461 8.33902 8.95855 8.64829 9.26781C8.95755 9.57707 9.13149 9.9964 9.13193 10.4338V13.8185H4.09756V10.4338Z" fill="#D62828"/>
<path id="Vector_6" d="M5.77539 17.1748H7.45352V37.3123H5.77539V17.1748Z" fill="#D62828"/>
<path id="Vector_7" d="M12.4883 45.7029H42.6945V47.381H12.4883V45.7029Z" fill="#D62828"/>
<path id="Vector_8" d="M12.4883 7.10603H42.6945V8.78416H12.4883V7.10603Z" fill="#D62828"/>
<path id="Vector_9" d="M47.7285 17.1748H49.4066V37.3123H47.7285V17.1748Z" fill="#D62828"/>
</g>
</svg>
