<svg width="36" height="36" viewBox="0 0 36 36" fill="none" xmlns="http://www.w3.org/2000/svg">
<g id="Frame" clip-path="url(#clip0_570_772)">
<g id="Layer_x0020_1">
<path id="Vector" fill-rule="evenodd" clip-rule="evenodd" d="M15.7961 36C11.5782 36 7.61336 34.355 4.61863 31.3603C1.64499 28.3867 0 24.4218 0 20.2039C0 15.986 1.64499 12.0211 4.61863 9.04746C7.61336 6.05273 11.5782 4.42883 15.7961 4.42883C20.0141 4.42883 23.9789 6.05273 26.9525 9.04746C33.1107 15.2056 33.1107 25.2232 26.9525 31.3603C23.9789 34.355 20.0141 36 15.7961 36Z" fill="#D62828"/>
<path id="Vector_2" fill-rule="evenodd" clip-rule="evenodd" d="M15.796 32.1195C12.6115 32.1195 9.61675 30.8752 7.36016 28.6397C2.72044 23.9789 2.72044 16.4288 7.36016 11.768C9.61675 9.53253 12.6115 8.28824 15.796 8.28824C18.9805 8.28824 21.9753 9.53253 24.2108 11.768C28.8716 16.4288 28.8716 23.9789 24.2108 28.6397C21.9753 30.8752 18.9805 32.1195 15.796 32.1195Z" fill="white"/>
<path id="Vector_3" fill-rule="evenodd" clip-rule="evenodd" d="M15.7963 28.2179C13.6451 28.2179 11.6416 27.3744 10.1232 25.8559C7.00191 22.7346 7.00191 17.6731 10.1232 14.5519C11.6416 13.0334 13.6451 12.1898 15.7963 12.1898C17.9263 12.1898 19.9299 13.0334 21.4483 14.5519C24.5696 17.6731 24.5696 22.7346 21.4483 25.8559C19.9299 27.3744 17.9263 28.2179 15.7963 28.2179Z" fill="#D62828"/>
<path id="Vector_4" fill-rule="evenodd" clip-rule="evenodd" d="M15.7964 24.3374C14.6786 24.3374 13.6452 23.9157 12.8649 23.1353C11.241 21.5114 11.241 18.8963 12.8649 17.2724C13.6452 16.4921 14.6786 16.0703 15.7964 16.0703C16.893 16.0703 17.9264 16.4921 18.7067 17.2724C20.3306 18.8963 20.3306 21.5114 18.7067 23.1353C17.9264 23.9157 16.893 24.3374 15.7964 24.3374Z" fill="white"/>
<path id="Vector_5" fill-rule="evenodd" clip-rule="evenodd" d="M15.7962 21.0264C15.5642 21.0264 15.3533 20.942 15.2057 20.7944C14.8683 20.4781 14.8683 19.9508 15.2057 19.6134L28.0704 6.7487C28.3867 6.43236 28.914 6.43236 29.2514 6.7487C29.5677 7.06505 29.5677 7.59229 29.2514 7.92972L16.3656 20.7944C16.218 20.942 16.0071 21.0264 15.7962 21.0264Z" fill="#333940"/>
<path id="Vector_6" fill-rule="evenodd" clip-rule="evenodd" d="M28.6608 7.82424C28.5343 7.82424 28.4078 7.76098 28.3234 7.67662C28.218 7.57117 28.1758 7.44463 28.1758 7.297L28.4499 3.47978C28.4499 3.37433 28.5132 3.26888 28.5976 3.18453L31.6345 0.147619C31.761 -8.39704e-06 31.9719 -0.0421877 32.1406 0.0421709C32.3304 0.10544 32.4359 0.274157 32.457 0.463963L32.5624 3.4376L35.5361 3.54305C35.7259 3.54305 35.8946 3.66959 35.9579 3.8383C36.0211 4.02811 35.9789 4.21792 35.8524 4.36554L32.7944 7.42354C32.7101 7.5079 32.6046 7.55008 32.4781 7.55008L28.6819 7.82424H28.6608Z" fill="#FFA721"/>
</g>
</g>
<defs>
<clipPath id="clip0_570_772">
<rect width="36" height="36" fill="white"/>
</clipPath>
</defs>
</svg>
