<svg width="42" height="43" viewBox="0 0 42 43" fill="none" xmlns="http://www.w3.org/2000/svg">
<g clip-path="url(#clip0_627_798)">
<path d="M21 4C14.2275 4 8.75 9.4775 8.75 16.25C8.75 19.295 9.625 22.1475 11.2175 24.72C12.88 27.415 15.0675 29.725 16.7475 32.42C17.57 33.7325 18.165 34.9575 18.795 36.375C19.25 37.3375 19.6175 39 21 39C22.3825 39 22.75 37.3375 23.1875 36.375C23.835 34.9575 24.4125 33.7325 25.235 32.42C26.915 29.7425 29.1025 27.4325 30.765 24.72C32.375 22.1475 33.25 19.295 33.25 16.25C33.25 9.4775 27.7725 4 21 4ZM21 21.0625C18.585 21.0625 16.625 19.1025 16.625 16.6875C16.625 14.2725 18.585 12.3125 21 12.3125C23.415 12.3125 25.375 14.2725 25.375 16.6875C25.375 19.1025 23.415 21.0625 21 21.0625Z" fill="#D62828"/>
</g>
<defs>
<clipPath id="clip0_627_798">
<rect width="42" height="42" fill="white" transform="translate(0 0.5)"/>
</clipPath>
</defs>
</svg>
