<svg width="55" height="55" viewBox="0 0 55 55" fill="none" xmlns="http://www.w3.org/2000/svg">
<g id="Page-1">
<g id="027---Good-User-Experience">
<path id="Shape" d="M45.5123 29.6743V4.06864C45.5123 2.0901 43.9083 0.486176 41.9298 0.486176H4.31391C2.33537 0.486176 0.731445 2.0901 0.731445 4.06864V47.0582C0.731445 49.0368 2.33537 50.6407 4.31391 50.6407H33.1716C36.8947 54.2847 42.4841 55.2451 47.2101 53.0529C51.9361 50.8607 54.8128 45.9732 54.4355 40.7772C54.0581 35.5812 50.5054 31.1607 45.5123 29.6743ZM4.31391 2.27741H41.9298C42.9191 2.27741 43.721 3.07937 43.721 4.06864V11.2336H2.52268V4.06864C2.52268 3.07937 3.32464 2.27741 4.31391 2.27741ZM2.52268 47.0582V13.0248H43.721V29.2892C38.7781 28.5644 33.8776 30.8489 31.2546 35.1008C28.6317 39.3527 28.7888 44.7572 31.6544 48.8495H4.31391C3.32464 48.8495 2.52268 48.0475 2.52268 47.0582ZM41.9298 52.4319C35.9942 52.4319 31.1824 47.6202 31.1824 41.6845C31.1824 35.7489 35.9942 30.9371 41.9298 30.9371C47.8654 30.9371 52.6772 35.7489 52.6772 41.6845C52.6708 47.6175 47.8628 52.4255 41.9298 52.4319Z" fill="#D62828"/>
<path id="Shape_2" d="M7.00081 9.44235C8.48472 9.44235 9.68766 8.2394 9.68766 6.7555C9.68766 5.27159 8.48472 4.06865 7.00081 4.06865C5.51691 4.06865 4.31396 5.27159 4.31396 6.7555C4.31396 8.2394 5.51691 9.44235 7.00081 9.44235ZM7.00081 5.85988C7.49545 5.85988 7.89643 6.26086 7.89643 6.7555C7.89643 7.25013 7.49545 7.65112 7.00081 7.65112C6.50618 7.65112 6.1052 7.25013 6.1052 6.7555C6.1052 6.26086 6.50618 5.85988 7.00081 5.85988Z" fill="#D62828"/>
<path id="Shape_3" d="M14.1659 9.44235C15.6498 9.44235 16.8527 8.2394 16.8527 6.7555C16.8527 5.27159 15.6498 4.06865 14.1659 4.06865C12.6819 4.06865 11.479 5.27159 11.479 6.7555C11.479 8.2394 12.6819 9.44235 14.1659 9.44235ZM14.1659 5.85988C14.6605 5.85988 15.0615 6.26086 15.0615 6.7555C15.0615 7.25013 14.6605 7.65112 14.1659 7.65112C13.6712 7.65112 13.2702 7.25013 13.2702 6.7555C13.2702 6.26086 13.6712 5.85988 14.1659 5.85988Z" fill="#D62828"/>
<path id="Shape_4" d="M30.2869 9.44235H39.2431C40.727 9.44235 41.93 8.2394 41.93 6.7555C41.93 5.27159 40.727 4.06865 39.2431 4.06865H30.2869C28.803 4.06865 27.6001 5.27159 27.6001 6.7555C27.6001 8.2394 28.803 9.44235 30.2869 9.44235ZM30.2869 5.85988H39.2431C39.7377 5.85988 40.1387 6.26086 40.1387 6.7555C40.1387 7.25013 39.7377 7.65112 39.2431 7.65112H30.2869C29.7923 7.65112 29.3913 7.25013 29.3913 6.7555C29.3913 6.26086 29.7923 5.85988 30.2869 5.85988Z" fill="#D62828"/>
<path id="Shape_5" d="M18.6435 24.6678C20.622 24.6678 22.226 23.0639 22.226 21.0853V16.6072C22.226 16.1126 21.825 15.7116 21.3303 15.7116C20.8357 15.7116 20.4347 16.1126 20.4347 16.6072V21.0853C20.4347 22.0746 19.6328 22.8765 18.6435 22.8765C17.6542 22.8765 16.8523 22.0746 16.8523 21.0853V16.6072C16.8523 16.1126 16.4513 15.7116 15.9567 15.7116C15.462 15.7116 15.061 16.1126 15.061 16.6072V21.0853C15.061 23.0639 16.665 24.6678 18.6435 24.6678Z" fill="#D62828"/>
<path id="Shape_6" d="M24.3758 24.4887C24.5659 24.6312 24.8047 24.6924 25.0399 24.6588C25.275 24.6252 25.4872 24.4996 25.6297 24.3096L27.6001 21.6827L29.5704 24.3096C29.7624 24.5656 30.0764 24.6997 30.394 24.6614C30.7117 24.6231 30.9848 24.4183 31.1105 24.124C31.2362 23.8298 31.1954 23.4908 31.0034 23.2348L28.7196 20.1898L31.0034 17.1447C31.3002 16.7489 31.22 16.1876 30.8243 15.8908C30.4286 15.594 29.8672 15.6742 29.5704 16.0699L27.6001 18.6968L25.6297 16.0699C25.4377 15.8139 25.1237 15.6798 24.8061 15.7181C24.4884 15.7564 24.2153 15.9612 24.0896 16.2555C23.9639 16.5497 24.0047 16.8887 24.1967 17.1447L26.4805 20.1898L24.1967 23.2348C24.0542 23.4249 23.993 23.6637 24.0266 23.8989C24.0602 24.134 24.1858 24.3462 24.3758 24.4887Z" fill="#D62828"/>
<path id="Shape_7" d="M7.00081 38.102H14.1657C15.6497 38.102 16.8526 36.8991 16.8526 35.4152V30.0415C16.8526 28.5576 15.6497 27.3546 14.1657 27.3546H7.00081C5.51691 27.3546 4.31396 28.5576 4.31396 30.0415V35.4152C4.31396 36.8991 5.51691 38.102 7.00081 38.102ZM6.1052 35.4152V30.1615L13.4815 36.3108H7.00081C6.50618 36.3108 6.1052 35.9098 6.1052 35.4152ZM15.0614 30.0415V35.2952L7.68507 29.1459H14.1657C14.6604 29.1459 15.0614 29.5469 15.0614 30.0415Z" fill="#D62828"/>
<path id="Shape_8" d="M18.6436 28.2503C18.6436 28.7449 19.0445 29.1459 19.5392 29.1459H33.869C34.3637 29.1459 34.7647 28.7449 34.7647 28.2503C34.7647 27.7556 34.3637 27.3546 33.869 27.3546H19.5392C19.0445 27.3546 18.6436 27.7556 18.6436 28.2503Z" fill="#D62828"/>
<path id="Shape_9" d="M26.7044 39.8933H5.20958C4.71495 39.8933 4.31396 40.2943 4.31396 40.7889C4.31396 41.2836 4.71495 41.6846 5.20958 41.6846H26.7044C27.199 41.6846 27.6 41.2836 27.6 40.7889C27.6 40.2943 27.199 39.8933 26.7044 39.8933Z" fill="#D62828"/>
<path id="Shape_10" d="M21.3307 43.4758H5.20958C4.71495 43.4758 4.31396 43.8768 4.31396 44.3714C4.31396 44.8661 4.71495 45.267 5.20958 45.267H21.3307C21.8253 45.267 22.2263 44.8661 22.2263 44.3714C22.2263 43.8768 21.8253 43.4758 21.3307 43.4758Z" fill="#D62828"/>
<path id="Shape_11" d="M29.391 31.8327H19.5392C19.0445 31.8327 18.6436 32.2337 18.6436 32.7283C18.6436 33.223 19.0445 33.624 19.5392 33.624H29.391C29.8856 33.624 30.2866 33.223 30.2866 32.7283C30.2866 32.2337 29.8856 31.8327 29.391 31.8327Z" fill="#D62828"/>
<path id="Shape_12" d="M27.5997 36.3109H19.5392C19.0445 36.3109 18.6436 36.7118 18.6436 37.2065C18.6436 37.7011 19.0445 38.1021 19.5392 38.1021H27.5997C28.0944 38.1021 28.4953 37.7011 28.4953 37.2065C28.4953 36.7118 28.0944 36.3109 27.5997 36.3109Z" fill="#D62828"/>
<path id="Shape_13" d="M41.0341 38.9977C41.0341 37.0191 39.4301 35.4152 37.4516 35.4152C35.4731 35.4152 33.8691 37.0191 33.8691 38.9977C33.8691 40.9762 35.4731 42.5801 37.4516 42.5801C39.4301 42.5801 41.0341 40.9762 41.0341 38.9977ZM35.6604 38.9977C35.656 38.1273 36.278 37.3797 37.1346 37.2257C37.9913 37.0717 38.8347 37.5558 39.1338 38.3732C39.4328 39.1906 39.101 40.1047 38.3472 40.5399V39.8933C38.3472 39.3986 37.9462 38.9977 37.4516 38.9977C36.957 38.9977 36.556 39.3986 36.556 39.8933V40.5399C36.0036 40.2225 35.6623 39.6347 35.6604 38.9977Z" fill="#D62828"/>
<path id="Shape_14" d="M46.4077 35.4152C44.4291 35.4152 42.8252 37.0191 42.8252 38.9977C42.8252 40.9762 44.4291 42.5801 46.4077 42.5801C48.3862 42.5801 49.9901 40.9762 49.9901 38.9977C49.9901 37.0191 48.3862 35.4152 46.4077 35.4152ZM47.3033 40.5399V39.8933C47.3033 39.3986 46.9023 38.9977 46.4077 38.9977C45.913 38.9977 45.512 39.3986 45.512 39.8933V40.5399C44.8099 40.1345 44.4676 39.3081 44.6775 38.5251C44.8873 37.742 45.5969 37.1974 46.4077 37.1974C47.2184 37.1974 47.928 37.742 48.1379 38.5251C48.3477 39.3081 48.0054 40.1345 47.3033 40.5399Z" fill="#D62828"/>
<path id="Shape_15" d="M44.6166 44.3713H39.2429C38.2536 44.3713 37.4517 45.1733 37.4517 46.1626C37.4517 48.6357 39.4566 50.6407 41.9297 50.6407C44.4029 50.6407 46.4078 48.6357 46.4078 46.1626C46.4078 45.6875 46.2191 45.2319 45.8832 44.896C45.5473 44.5601 45.0917 44.3713 44.6166 44.3713ZM41.9297 48.8494C40.4458 48.8494 39.2429 47.6465 39.2429 46.1626H44.6166C44.6166 47.6465 43.4136 48.8494 41.9297 48.8494Z" fill="#D62828"/>
</g>
</g>
</svg>
