<svg width="61" height="61" viewBox="0 0 61 61" fill="none" xmlns="http://www.w3.org/2000/svg">
<circle cx="30.4996" cy="30.3664" r="30.3511" fill="#23A26D" fill-opacity="0.12"/>
<path d="M29.9578 15.9135C21.9942 15.9135 15.5049 22.4029 15.5049 30.3664C15.5049 38.33 21.9942 44.8194 29.9578 44.8194C37.9214 44.8194 44.4107 38.33 44.4107 30.3664C44.4107 22.4029 37.9214 15.9135 29.9578 15.9135ZM36.8663 27.0423L28.6715 35.2371C28.4692 35.4394 28.1946 35.555 27.9055 35.555C27.6164 35.555 27.3418 35.4394 27.1395 35.2371L23.0493 31.1469C22.6302 30.7278 22.6302 30.034 23.0493 29.6149C23.4684 29.1958 24.1622 29.1958 24.5813 29.6149L27.9055 32.9391L35.3343 25.5103C35.7534 25.0911 36.4472 25.0911 36.8663 25.5103C37.2854 25.9294 37.2854 26.6087 36.8663 27.0423Z" fill="#23A26D"/>
</svg>
