<svg width="55" height="55" viewBox="0 0 55 55" fill="none" xmlns="http://www.w3.org/2000/svg">
<g id="web-design_3159310" clip-path="url(#clip0_670_620)">
<g id="Group">
<path id="Vector" d="M47.6507 7.37692H47.0135C48.228 5.3996 47.7796 2.74496 45.8304 1.29876C43.7301 -0.259345 40.7455 0.242195 39.2798 2.43252L35.9713 7.37702H7.54888C5.21266 7.37702 3.31201 9.27767 3.31201 11.6139V38.7019C3.31201 41.0381 5.21266 42.9387 7.54888 42.9387H24.0061L22.7627 48.1615H20.0789C18.3298 48.1615 16.9068 49.5844 16.9068 51.3335V51.9958H13.5983C13.019 51.9958 12.5495 52.4655 12.5495 53.0446C12.5495 53.6238 13.019 54.0934 13.5983 54.0934H41.6014C42.1806 54.0934 42.6502 53.6238 42.6502 53.0446C42.6502 52.4655 42.1806 51.9958 41.6014 51.9958H38.2929V51.3335C38.2929 49.5844 36.8699 48.1615 35.1208 48.1615H32.437L31.1935 42.9387H47.6508C49.987 42.9387 51.8876 41.0381 51.8876 38.7019V32.7415V11.6138C51.8876 9.27757 49.987 7.37692 47.6507 7.37692ZM32.6231 25.8149C30.9833 26.9628 27.9113 25.4025 24.9775 26.9679C24.2617 23.2494 24.713 19.7521 28.4389 18.9802C28.9204 18.8798 29.4389 18.8344 29.8802 18.8432C31.1413 19.7789 32.4168 20.7252 33.6744 21.6583C34.2249 23.2596 34.0183 24.8383 32.6231 25.8149ZM33.6801 14.5729L36.649 16.7756L34.3658 19.5592C33.4259 18.8619 32.6179 18.2624 31.678 17.5649C31.8731 17.2733 33.5017 14.8394 33.6801 14.5729ZM41.0233 3.59911C41.8176 2.41176 43.4377 2.1355 44.5805 2.98346C45.7237 3.83153 45.9284 5.46201 45.0226 6.5665C43.4153 8.52599 39.594 13.1849 37.9807 15.1519L34.8479 12.8276L41.0233 3.59911ZM36.1952 51.3335V51.9958H19.0044V51.3335C19.0044 50.7411 19.4864 50.2591 20.0789 50.2591H35.1207C35.7131 50.2591 36.1952 50.7411 36.1952 51.3335ZM30.2806 48.1615H24.9189L26.1624 42.9387H29.0372L30.2806 48.1615ZM49.79 38.7019C49.79 39.8815 48.8304 40.8411 47.6508 40.8411C45.9859 40.8411 9.4209 40.8411 7.54899 40.8411C6.36939 40.8411 5.40973 39.8815 5.40973 38.7019V33.7903H8.40681C8.98606 33.7903 9.45561 33.3206 9.45561 32.7415C9.45561 32.1623 8.98606 31.6927 8.40681 31.6927H5.40952V11.6138C5.40952 10.4342 6.36918 9.47453 7.54877 9.47453H34.5676C33.5629 10.9761 30.6316 15.3568 29.7031 16.7442C27.6477 16.7628 25.5957 17.4788 24.2524 19.047C22.4244 21.1808 22.1033 24.5336 23.2979 29.0122C23.5021 29.7781 24.4577 30.0525 25.0359 29.5002C27.7478 26.9089 31.1253 29.7354 34.15 27.2873C35.9963 25.7927 36.4333 23.4168 35.7371 21.195C36.6782 20.0476 44.4069 10.6247 45.3502 9.47453H47.6506C48.8302 9.47453 49.7898 10.4342 49.7898 11.6138V31.6926H16.7971C16.2178 31.6926 15.7482 32.1622 15.7482 32.7414C15.7482 33.3205 16.2178 33.7902 16.7971 33.7902H49.79V38.7019Z" fill="#D62828"/>
<path id="Vector_2" d="M12.3994 31.7129C11.8945 31.8161 11.5562 32.2525 11.5562 32.7419C11.5562 33.398 12.156 33.9004 12.8095 33.7698C13.3902 33.6519 13.744 33.0922 13.6328 32.5364C13.5161 31.9627 12.9596 31.6002 12.3994 31.7129Z" fill="#D62828"/>
</g>
</g>
<defs>
<clipPath id="clip0_670_620">
<rect width="53.7" height="53.7" fill="white" transform="translate(0.75 0.393539)"/>
</clipPath>
</defs>
</svg>
