<svg width="55" height="55" viewBox="0 0 55 55" fill="none" xmlns="http://www.w3.org/2000/svg">
<g id="web_4416391" clip-path="url(#clip0_670_174)">
<g id="Group">
<path id="Vector" d="M4.97998 7.06577C3.93199 7.06577 3.93031 8.63902 4.97998 8.63902C6.02797 8.63902 6.02965 7.06577 4.97998 7.06577Z" fill="#D62828"/>
<path id="Vector_2" d="M7.79443 7.06577C6.74644 7.06577 6.74477 8.63902 7.79443 8.63902C8.84242 8.63902 8.8441 7.06577 7.79443 7.06577Z" fill="#D62828"/>
<path id="Vector_3" d="M10.6089 7.06577C9.5609 7.06577 9.55922 8.63902 10.6089 8.63902C11.6568 8.63902 11.6586 7.06577 10.6089 7.06577Z" fill="#D62828"/>
<path id="Vector_4" d="M53.4964 4.06791H1.36963C0.935099 4.06791 0.583008 4.42 0.583008 4.85453V50.4786C0.583008 50.9131 0.935099 51.2652 1.36963 51.2652H53.4964C53.9309 51.2652 54.283 50.9131 54.283 50.4786V4.85453C54.283 4.42 53.9309 4.06791 53.4964 4.06791ZM18.0529 49.6919V46.3466H30.7171V49.6919H18.0529ZM35.9701 49.6919V42.7172H48.6342V49.6919H35.9701ZM50.2076 49.6919V41.9306C50.2076 41.4961 49.8555 41.144 49.421 41.144H35.1834C34.7489 41.144 34.3968 41.4961 34.3968 41.9306V49.6919H32.2903V45.56C32.2903 45.1254 31.9383 44.7733 31.5037 44.7733H17.2663C16.8318 44.7733 16.4797 45.1254 16.4797 45.56V49.6919H13.9224C13.9553 46.5502 13.9523 43.4348 13.9134 40.1951C13.9014 39.1786 12.3281 39.1968 12.3404 40.214C12.3792 43.4475 12.3821 46.5565 12.3492 49.6919H2.15625V11.6391L12.3441 11.6582C12.3819 19.5604 12.3806 27.564 12.3402 35.461C12.335 36.4484 13.9081 36.506 13.9134 35.469C13.9539 27.5697 13.9553 19.564 13.9174 11.6597L39.8534 11.6369C40.8961 11.6339 40.7606 10.2329 39.8491 10.0636C31.0526 10.0878 5.74083 10.0752 2.15625 10.0658V5.64115H52.7098V10.0723C50.0757 10.0981 47.286 10.0952 44.5909 10.0638C43.6022 10.032 43.5832 11.6255 44.5724 11.6369L52.7098 11.6456V49.6919H50.2076Z" fill="#D62828"/>
<path id="Vector_5" d="M9.37025 14.5969H4.95322C3.93617 14.5969 3.93617 16.1701 4.95322 16.1701H9.37025C10.3874 16.1701 10.3874 14.5969 9.37025 14.5969Z" fill="#D62828"/>
<path id="Vector_6" d="M4.95322 19.4886H8.32142C9.33847 19.4886 9.33847 17.9154 8.32142 17.9154H4.95322C3.93617 17.9154 3.93617 19.4886 4.95322 19.4886Z" fill="#D62828"/>
<path id="Vector_7" d="M9.37025 21.2339H4.95322C3.93617 21.2339 3.93617 22.8071 4.95322 22.8071H9.37025C10.3874 22.8071 10.3874 21.2339 9.37025 21.2339Z" fill="#D62828"/>
<path id="Vector_8" d="M7.16771 24.5525H4.95322C3.93617 24.5525 3.93617 26.1257 4.95322 26.1257H7.16771C8.18487 26.1257 8.18487 24.5525 7.16771 24.5525Z" fill="#D62828"/>
<path id="Vector_9" d="M31.5035 14.1089H17.2661C16.8316 14.1089 16.4795 14.461 16.4795 14.8955V29.1329C16.4795 29.5674 16.8316 29.9195 17.2661 29.9195H31.5035C31.9381 29.9195 32.2902 29.5674 32.2902 29.1329V14.8955C32.2902 14.4611 31.9381 14.1089 31.5035 14.1089ZM30.7169 28.3463H18.0527V15.6821H30.7169V28.3463Z" fill="#D62828"/>
<path id="Vector_10" d="M31.5035 31.9758H17.2661C16.8316 31.9758 16.4795 32.3278 16.4795 32.7624V41.9306C16.4795 42.3651 16.8316 42.7172 17.2661 42.7172H31.5035C31.9381 42.7172 32.2902 42.3651 32.2902 41.9306V32.7624C32.2902 32.3278 31.9381 31.9758 31.5035 31.9758ZM30.7169 41.144H18.0527V33.549H30.7169V41.144Z" fill="#D62828"/>
<path id="Vector_11" d="M49.4211 14.1089H35.1836C34.7491 14.1089 34.397 14.461 34.397 14.8955V38.1412C34.397 38.5757 34.7491 38.9278 35.1836 38.9278H49.421C49.8555 38.9278 50.2076 38.5757 50.2076 38.1412V14.8955C50.2077 14.4611 49.8555 14.1089 49.4211 14.1089ZM48.6345 37.3546H35.9702V15.6821H48.6344V37.3546H48.6345Z" fill="#D62828"/>
</g>
</g>
<defs>
<clipPath id="clip0_670_174">
<rect width="53.7" height="53.7" fill="white" transform="translate(0.583008 0.816544)"/>
</clipPath>
</defs>
</svg>
